<?xml version="1.0" encoding="UTF-8"?><svg id="Layer_2" xmlns="http://www.w3.org/2000/svg" viewBox="0 0 511.1 448"><defs><style>.cls-1{fill:#f3f3f3;}</style></defs><g id="Layer_1-2"><path class="cls-1" d="M256,0C114.6,0,.03,93.1,.03,208c0,47.63,19.91,91.25,52.91,126.2-14.88,39.5-45.87,72.88-46.37,73.25-6.62,7-8.38,17.25-4.62,26,3.88,8.75,12.44,14.55,22.06,14.55,61.5,0,109.1-25.75,139.1-46.25,28,9.05,60.2,14.25,92.9,14.25,141.4,0,255.1-93.13,255.1-208S397.4,0,256,0Zm.1,368c-26.75,0-53.12-4.12-78.38-12.12l-22.75-7.12-19.5,13.75c-14.25,10.12-33.88,21.38-57.5,29,7.38-12.12,14.37-25.75,19.88-40.25l10.62-28-20.62-21.87c-18.03-19.29-39.78-51.18-39.78-93.39,0-88.25,93.25-160,208-160s208,71.75,208,160-93.27,160-207.97,160Z"/></g></svg>