<?xml version="1.0" encoding="UTF-8"?><svg id="Layer_2" xmlns="http://www.w3.org/2000/svg" viewBox="0 0 640 448"><defs><style>.cls-1{fill:#f3f3f3;}</style></defs><g id="Layer_1-2"><path class="cls-1" d="M184,56c0,30.9-25.1,56-56,56s-56-25.1-56-56S97.07,0,128,0s56,25.07,56,56Zm24.4,108.3c-29.7,26.4-48.4,64.9-48.4,107.7,0,34.3,11.1,65.8,32,90.5v21.5c0,17.7-14.3,32-32,32H96c-17.67,0-32-14.3-32-32v-26.8C26.16,339.2,0,300.7,0,256c0-61.9,50.14-112,112-112h32c23.1,0,46.2,7.5,64.4,20.3h0Zm-144.4,49.4c-9.96,11.2-16,26.1-16,42.3s6.04,31.1,16,42.3v-84.6Zm384,170.3v-21.5c20-24.7,32-56.2,32-90.5,0-42.8-18.7-81.3-48.4-107.7,18.2-12.8,40.4-20.3,64.4-20.3h32c61.9,0,112,50.1,112,112,0,44.7-26.2,83.2-64,101.2v26.8c0,17.7-14.3,32-32,32h-64c-17.7,0-32-14.3-32-32Zm128-85.7c9.1-11.2,16-26.1,16-42.3s-6.9-31.1-16-42.3v84.6Zm-8-242.3c0,30.9-25.1,56-56,56s-56-25.1-56-56S481.1,0,512,0s56,25.07,56,56Zm-312,8C256,28.65,284.7,0,320,0s64,28.65,64,64-28.7,64-64,64-64-28.7-64-64Zm192,208c0,44.7-26.2,83.2-64,101.2v42.8c0,17.7-14.3,32-32,32h-64c-17.7,0-32-14.3-32-32v-42.8c-37.8-18-64-56.5-64-101.2,0-61.9,50.1-112,112-112h32c61.9,0,112,50.1,112,112Zm-192,42.3v-84.6c-10,11.2-16,26.1-16,42.3s6,31.1,16,42.3Zm128-84.6v84.6c9.1-11.3,16-26.1,16-42.3s-6.9-31.1-16-42.3Z"/></g></svg>