<?xml version="1.0" encoding="UTF-8"?><svg id="Layer_2" xmlns="http://www.w3.org/2000/svg" viewBox="0 0 640 447.98"><defs><style>.cls-1{fill:#f3f3f3;}</style></defs><g id="Layer_1-2"><path class="cls-1" d="M623.1,104.88L340.4,3.68c-13.73-4.91-28.7-4.91-42.43,0L16.05,104.88C6.44,108.38,0,117.58,0,127.98s6.44,19.65,16.05,23.09l60.02,21.51c-11.89,15.8-20.26,34.16-24.55,53.95-11.47,4.85-19.52,16.25-19.52,29.45,0,9.95,4.81,18.49,11.94,24.36l-24.83,149c-1.63,9.74,5.89,18.64,15.78,18.64h58.22c9.89,0,17.41-8.88,15.78-18.63l-24.83-149c7.13-5.87,11.94-15.27,11.94-24.37,0-10.29-5.17-19.03-12.72-24.89,4.25-17.76,12.88-33.82,24.94-47.03l190.6,68.23c13.73,4.91,28.7,4.91,42.43,0l282.7-101.2c9.65-3.51,16.05-12.71,16.05-23.11s-6.4-19.6-16.9-23.1Zm-272,177.5c-9.4,3.7-20.2,5.6-31.1,5.6s-21.69-1.87-32-5.55l-145.2-51.95-14.8,142.8c0,41.3,85.1,74.7,192,74.7s192-33.4,192-74.67l-14.78-142.9-146.12,51.97Z"/></g></svg>