<?xml version="1.0" encoding="UTF-8"?><svg id="Layer_2" xmlns="http://www.w3.org/2000/svg" viewBox="0 0 508.05 71.71"><defs><style>.cls-1{fill:#003640;}</style></defs><g id="Layer_6"><g><path class="cls-1" d="M57.24,.08C37.85,24.56,19.19,48.14,.52,71.71l-.52-.32c.54-1.05,1.03-2.12,1.62-3.13C14.12,46.59,26.66,24.94,39.09,3.22,40.43,.87,41.92-.15,44.66,.02c3.82,.23,7.67,.06,12.58,.06Z"/><path class="cls-1" d="M437.34,37.64V21.54h5.4v42.93c-2.59,.67-5.12,1.45-5.58-2.63-10.19,8.5-19.23,.77-20.07-7.94-.31-3.18-.34-6.48,.14-9.63,1.31-8.56,10.46-15.4,20.11-6.64Zm.48,11.98c-.6-2.43-.96-4.9-1.84-7.18-1.01-2.63-3.17-4.66-6.03-3.96-2.15,.53-4.76,2.02-5.75,3.85-2.47,4.58-2.49,9.77,0,14.35,1.01,1.85,3.81,3.86,5.71,3.79,2.1-.09,4.62-2.11,5.99-3.99,1.28-1.75,1.3-4.43,1.92-6.85Z"/><path class="cls-1" d="M455.37,51.16c1.41,3.17,2.01,5.52,3.34,7.33,2.5,3.4,7.89,3.49,9.9-.07,1.76-3.12,3.88-3.33,6.74-2.66-.1,6.79-7.88,11.68-15.33,9.14-2.63-.9-5.48-2.91-6.91-5.23-4.09-6.65-3.99-13.79-.02-20.55,2.56-4.37,6.81-6.1,11.8-5.68,4.88,.41,8.61,2.86,10.29,7.48,1.11,3.05,1.39,6.41,2.17,10.26h-22Zm15.26-4.49c-.59-5.94-3.18-8.82-7.33-8.58-3.94,.23-6.5,3.49-6.6,8.58h13.93Z"/><path class="cls-1" d="M194.81,64.57c-2.94,.45-5.48,1.18-5.37-1.95-3.36,.92-6.74,2.38-10.22,2.67-4.26,.35-7.53-2.42-8.42-6-1.07-4.32,.5-8.53,4.65-10.35,3.25-1.42,6.95-1.8,10.37-2.89,1.3-.41,3.49-1.8,3.37-2.21-.52-1.87-1.29-4.24-2.77-5.18-3.6-2.27-7.48-.39-9.48,4.11h-5.85c.94-2.1,1.43-4.04,2.54-5.5,2.77-3.68,9.07-4.93,14.48-3.19,4.45,1.44,6.58,4.49,6.67,10.06,.11,6.7,.03,13.41,.03,20.41Zm-5.7-14.73c-3.5,.81-6.81,1.32-9.93,2.37-2.35,.79-3.75,3.1-2.65,5.34,.74,1.52,2.91,3.11,4.58,3.29,5.31,.57,8.6-3.86,8-10.99Z"/><path class="cls-1" d="M263.57,49.63c-.03,10.27-5.72,16.42-14.58,15.78-.12,0-.25-.01-.37-.03-5.38-.68-8.94-3.72-10.52-8.77-2.2-7.01-1.98-13.87,3.29-19.56,3.52-3.8,8.17-4.54,13.08-2.97,5.87,1.87,9.14,7.54,9.11,15.56Zm-5.53-.36c-.61-2.38-.68-5.01-1.93-6.81-1.26-1.81-3.53-3.42-5.66-3.99-2.84-.76-5.02,1.24-6.13,3.82-2.01,4.66-2.27,9.63,.02,14.1,1,1.95,3.71,3.66,5.95,4.18,2.73,.63,5.02-1.38,5.98-4.07,.83-2.3,1.19-4.77,1.77-7.23Z"/><path class="cls-1" d="M378.17,49.67c-.05,10.41-5.97,16.61-15,15.7-7.58-.76-12.55-8.29-11.63-17.61,.95-9.55,6.67-15.14,14.67-14.35,7.43,.74,12.01,6.95,11.96,16.26Zm-5.36-.23c-.84-2.73-1.25-5.65-2.59-8.06-2.42-4.34-8.31-4.34-10.73,0-2.91,5.22-2.94,10.83-.08,16.07,2.46,4.52,8.5,4.48,10.93-.04,1.25-2.32,1.62-5.12,2.46-7.98Z"/><path class="cls-1" d="M136.41,50.03c-.23,10.09-5.87,16.05-14.63,15.36-5.43-.43-9.16-3.46-10.75-8.46-2.21-6.91-2.25-13.87,2.94-19.66,3.57-3.98,8.3-4.81,13.35-3.18,5.95,1.91,9.27,7.84,9.08,15.95Zm-5.63-.49c-.49-2.27-.76-4.64-1.55-6.82-.94-2.61-2.84-4.33-5.87-4.41-3.18-.09-5.24,1.56-6.34,4.31-1.83,4.57-2.12,9.41,.16,13.74,1.03,1.96,3.7,3.73,5.92,4.21,2.92,.63,5.18-1.58,6.18-4.37,.74-2.07,1-4.32,1.51-6.65Z"/><path class="cls-1" d="M271.28,34.13h4.71c.18,1.04,.35,2.03,.6,3.47,.97-.85,1.58-1.42,2.23-1.94,5.73-4.62,13.83-2.28,15.27,4.89,.99,4.94,.62,10.15,.79,15.24,.09,2.84,.02,5.69,.02,8.82h-5.77c0-5.45,.02-10.78-.01-16.1-.01-1.86,.3-3.93-.39-5.54-.75-1.74-2.22-3.71-3.86-4.4-2.43-1.01-5.14-.05-6.37,2.49-.94,1.94-1.52,4.23-1.6,6.39-.22,5.58-.07,11.18-.07,17.1h-5.52v-30.43Z"/><path class="cls-1" d="M409.37,64.71h-5.65c0-5.5,.02-10.82-.01-16.14-.01-1.86,.34-3.96-.38-5.53-.84-1.8-2.42-3.81-4.17-4.51-2.46-.98-5.13,.2-6.24,2.77-.91,2.1-1.38,4.51-1.47,6.81-.21,5.44-.07,10.89-.07,16.56h-5.47v-30.46c1.44-.06,2.88-.13,4.62-.2,.23,1.1,.44,2.09,.67,3.22,.47-.21,.87-.27,1.09-.5,3.06-3.21,6.71-4.18,10.9-2.75,4.27,1.45,5.91,5.05,6.09,9.03,.31,7.07,.09,14.16,.09,21.7Z"/><path class="cls-1" d="M64.3,64.9c0-7.22,.1-13.8-.05-20.38-.06-2.68-.85-5.33-3.98-6.05-2.79-.64-5.4,.07-6.7,2.77-.88,1.84-1.39,4-1.49,6.05-.22,4.47-.07,8.96-.08,13.44,0,1.22,0,2.43,0,3.9h-5.43v-30.44l4.55-.21,.74,3.19c.39-.15,.81-.19,1.02-.43,3.17-3.35,6.96-4.3,11.23-2.68,4.17,1.58,5.67,5.26,5.83,9.24,.28,6.94,.08,13.9,.08,21.29l-5.73,.28Z"/><path class="cls-1" d="M102.37,64.57q-5.43,.64-5.45-4.32c-.04-5.23,0-10.46-.18-15.69-.1-3.01-.94-5.76-4.63-6.2-3.49-.42-6.22,1.34-6.96,5.26-.64,3.38-.56,6.91-.65,10.38-.1,3.46-.02,6.93-.02,10.64h-5.52v-30.33c2.46-.17,5.3-1.67,5.53,3.11,.81-.67,1.34-1.1,1.87-1.54,3.02-2.55,6.42-3.19,10.13-1.86,3.73,1.33,5.65,4.37,5.8,8,.31,7.43,.09,14.88,.09,22.57Z"/><path class="cls-1" d="M324.83,42.75c-2.89,.25-5.25,.87-6.75-2.74-1.23-2.96-7.1-2.83-9.18-.27-1.75,2.14-.99,5.01,1.85,5.99,2.46,.85,5.09,1.22,7.62,1.87,4.72,1.23,7.16,4.08,7.21,8.31,.05,4.19-2.37,7.41-6.73,8.83-6.28,2.05-16.73,.15-16.89-8.84,2.72-.34,5.24-1.33,6.82,2.58,1.31,3.25,7.81,3.47,10.15,.79,2.01-2.3,1.09-5.45-2.09-6.48-2.36-.77-4.86-1.11-7.27-1.76-4.59-1.23-6.91-3.95-7.02-8.05-.11-4.34,2.43-7.61,6.98-8.99,7.62-2.31,14.46,1.44,15.29,8.76Z"/><path class="cls-1" d="M502.38,64.78c0-5.51,.04-10.7-.02-15.89-.02-1.98,.23-4.18-.53-5.88-.8-1.79-2.41-3.78-4.14-4.47-2.48-.98-5.16,.22-6.21,2.79-.96,2.35-1.46,5.01-1.57,7.56-.23,5.18-.07,10.38-.07,15.47-5.45,1.03-5.61,.92-5.62-3.92-.01-7.34-.01-14.69,0-22.03,0-1.33,.12-2.67,.19-4.17h4.85c.17,.93,.35,1.85,.55,2.9,.37-.12,.79-.12,.98-.33,3.16-3.34,6.93-4.37,11.22-2.73,4.32,1.65,5.73,5.39,5.86,9.58,.2,6.22,.2,12.45,.11,18.67-.06,4.33-3.14,2.07-5.61,2.46Z"/><path class="cls-1" d="M139.95,34.32q5.78-.56,7.29,4.48c1.88,6.3,3.76,12.6,5.96,19.98,.78-1.85,1.24-2.74,1.53-3.68,1.66-5.47,3.27-10.95,4.92-16.43q1.52-5.06,7.16-4.25c-3.05,9.62-5.98,19.23-9.3,28.71-.35,1.01-2.99,1.63-4.58,1.66-1.28,.02-3.4-.86-3.73-1.82-3.22-9.39-6.15-18.88-9.25-28.64Z"/><path class="cls-1" d="M210.06,26.11v7.74c2.47,.11,4.66,.21,6.83,.3q1.25,4.27-6.62,5.2c0,5.86-.18,11.78,.16,17.68,.07,1.12,2.08,2.36,3.44,3.09,.84,.46,2.14,.09,3.19,.09,.86,4.53,.48,5.02-3.72,5.13-5.89,.16-8.82-2.53-8.92-8.44-.1-5.71-.02-11.43-.02-17.37l-3.62-.94v-4.31l3.47-.54c.12-2.59,.24-5.03,.36-7.65h5.47Z"/><path class="cls-1" d="M347.28,21.45v3.9c-7.05,1.21-7.62,1.87-6.98,8.47,2.21,.12,4.49,.25,6.93,.38v4.64l-7.08,.35v25.05c-5.54,1.26-5.8,1.06-5.81-4.03-.01-6.84,0-13.67,0-20.74-2.98-.31-5.01-1.35-3.34-5.06l2.98-.73c1.67-11.62,4.91-14.63,13.29-12.24Z"/><path class="cls-1" d="M224.17,34.19h5.29v30.43h-5.29v-30.43Z"/><path class="cls-1" d="M223.09,22.34h7.15c-.18,2,.31,4.46-.7,5.52-.89,.95-4.06,1.08-5.07,.22-1.11-.94-.9-3.43-1.37-5.75Z"/></g></g></svg>