<?xml version="1.0" encoding="UTF-8"?><svg id="Layer_2" xmlns="http://www.w3.org/2000/svg" viewBox="0 0 297.47 308.17"><defs><style>.cls-1{fill:#21234f;}</style></defs><g id="Layer_3"><g><path class="cls-1" d="M297.47,278.75c-1.48,2.98-2.98,5.96-4.45,8.94-1.34,2.72-2.68,5.45-3.96,8.2-.28,.61-.46,1.32-.47,1.98-.05,2.82-.05,5.65,0,8.47,.02,1.03-.35,1.4-1.37,1.36-1.47-.06-2.96-.07-4.43,0-1,.05-1.27-.34-1.25-1.29,.05-2.43-.05-4.87,.04-7.3,.05-1.49-.32-2.79-.96-4.11-2.56-5.26-5.07-10.55-7.59-15.83-.13-.27-.21-.55-.43-1.13,1.43,0,2.74,.17,3.98-.03,2.71-.43,4.17,.53,5,3.21,.84,2.71,2.2,5.25,3.47,8.17,.84-1.92,1.57-3.56,2.28-5.2,.74-1.71,1.5-3.41,2.21-5.14,.3-.74,.75-1.07,1.58-1.03,2.12,.1,4.24,.13,6.36,.18v.52Z"/><path class="cls-1" d="M207.25,4.07c1.63,.21,1.31,1.29,1.2,2.2-.9,7.3-2.95,14.26-6.15,20.88-4.55,9.4-10.61,17.83-16.92,26.08-6.09,7.97-12.4,15.78-18.47,23.77-8.78,11.57-15.87,24.04-19.31,38.32-2.06,8.57-2.54,17.24-1.58,26.01,1.33,12.05,5.05,23.4,10.33,34.22,3.27,6.7,7.09,13.12,10.67,19.67,.22,.41,.45,.82,.77,1.41-2.39,.16-4.62,.39-6.86,.46-14.34,.48-28.2-1.85-41.54-7.15-2.78-1.1-5.47-2.42-8.18-3.69-.42-.2-.87-.63-1.02-1.06-3.96-11.28-6.52-22.86-7.1-34.83-.47-9.78,.32-19.44,2.88-28.92,3.16-11.72,8.71-22.17,16.49-31.47,6.73-8.04,14.91-14.37,23.49-20.27,11.74-8.08,23.43-16.22,34.32-25.44,7.09-6.01,13.65-12.51,18.61-20.45,3.54-5.67,6.11-11.77,7.86-18.22,.13-.5,.32-.98,.5-1.52Z"/><path class="cls-1" d="M77.44,159.42c-1.77-2.4-3.63-4.75-5.31-7.21-9.02-13.19-14.56-27.72-16.82-43.55-1.72-12.08-1.23-24.08,1.11-36.02,.1-.49,.28-1.04,.6-1.4,6.87-7.53,14.19-14.56,22.8-20.12,10.04-6.48,21.06-10.34,32.77-12.38,14.14-2.47,28.38-4.4,42.34-7.83,8.67-2.13,17.09-4.95,24.64-9.87,7.84-5.11,13.74-12.03,18.53-19.98,.2-.33,.35-.77,.64-.96,.25-.15,.82-.13,1,.05,.22,.23,.35,.78,.23,1.07-1.54,3.72-2.88,7.56-4.77,11.1-5.05,9.46-12.56,16.75-21.14,23.03-10.08,7.39-21.31,12.69-32.42,18.23-9.49,4.74-18.78,9.8-27.25,16.24-13.68,10.38-23.27,23.69-28.92,39.9-3.37,9.68-5.48,19.63-6.41,29.82-.58,6.4-.83,12.82-1.24,19.24-.01,.17-.04,.34-.06,.51l-.32,.15Z"/><path class="cls-1" d="M215.92,9.08c.33,.53,.93,1.06,.94,1.6,.3,11.68-.65,23.25-3.23,34.67-2.19,9.71-5.54,19.06-8.81,28.43-3.27,9.39-5.51,19.01-5.22,29.05,.33,11.48,4.73,21.23,12.73,29.38,8.31,8.46,17.97,14.85,29.23,18.73,.36,.12,.71,.3,1.29,.55-.99,1.45-1.88,2.86-2.86,4.2-7.24,9.9-16.19,18.01-26.45,24.64-3.53,2.28-7.29,4.2-10.93,6.31-.71,.41-1.21,.31-1.85-.22-9.24-7.66-16.89-16.61-22.4-27.31-4.16-8.07-6.66-16.64-7.44-25.71-1.26-14.75,2.08-28.62,7.95-42.02,3.83-8.74,9.04-16.71,13.93-24.85,6.87-11.43,13.43-23.01,17.58-35.78,2.17-6.66,3.7-13.46,4.91-20.35,.07-.38,.15-.76,.23-1.14l.39-.21Z"/><path class="cls-1" d="M41.26,291.44v16.26c-2.21,0-4.28,.04-6.35-.05-.24-.01-.64-.71-.65-1.1-.06-2.48-.03-4.96-.03-7.43,0-6.52,.02-13.04-.02-19.57,0-1.13,.33-1.57,1.48-1.51,1.73,.09,3.76-.47,5.12,.26,1.29,.7,1.92,2.68,2.79,4.12,2.25,3.71,4.48,7.44,6.72,11.16,.17,.29,.37,.56,.71,1.07,.06-.56,.13-.87,.13-1.18,0-4.74,0-9.48-.04-14.22,0-.82,.19-1.22,1.07-1.2,1.61,.03,3.22,.03,4.83,0,.93-.02,1.18,.41,1.18,1.28-.02,9.09-.02,18.17,0,27.26,0,.84-.26,1.17-1.13,1.14-1.52-.05-3.04-.06-4.56,0-.8,.03-1.24-.25-1.65-.94-2.81-4.74-5.66-9.46-8.51-14.19-.25-.42-.53-.83-.8-1.25l-.28,.09Z"/><path class="cls-1" d="M158.56,239.66c3.36,1.93,4.04,5.14,3.33,8.79-.65,3.32-3.3,5.61-7.33,5.97-3.88,.34-7.81,.24-11.72,.29-3.14,.04-3.14,0-3.14-3.19,0-8.26,.02-16.53-.02-24.79,0-1.26,.28-1.78,1.66-1.73,4.38,.16,8.8-.06,13.15,.34,6.55,.6,8.11,5.78,6.7,10.48-.42,1.38-1.69,2.51-2.64,3.85Zm-11.84,5.89c0,.74-.07,1.49,.03,2.21,.04,.32,.42,.86,.65,.86,1.82,.02,3.66,.06,5.45-.17,1.47-.19,2.26-1.43,2.23-2.92-.03-1.47-.88-2.56-2.38-2.81-.98-.16-1.99-.17-2.98-.18-3.01-.02-3.01,0-3.01,3.01Zm0-11.66c0,.7-.06,1.4,.03,2.08,.04,.3,.39,.8,.59,.8,1.82-.01,3.65,.02,5.44-.24,1.37-.2,2-1.27,1.98-2.66-.01-1.35-.71-2.33-2.08-2.61-1.01-.21-2.07-.25-3.1-.26-2.87-.03-2.87-.01-2.86,2.88Z"/><path class="cls-1" d="M172.45,295.45c1.92,4.02,3.82,8,5.84,12.25-2.5,0-4.77,.05-7.04-.05-.32-.01-.71-.68-.9-1.11-1.47-3.24-2.9-6.49-4.34-9.74-.33-.73-2.89-1.3-3.38-.69-.23,.29-.23,.82-.24,1.24-.02,3.04-.04,6.09,0,9.13,.02,.97-.28,1.31-1.26,1.26-1.56-.07-3.13-.04-4.69,0-.78,.02-1.09-.26-1.09-1.06,.02-9.17,.01-18.35,0-27.52,0-.67,.19-1.1,.95-1.09,4.6,.05,9.22-.11,13.81,.19,4.09,.27,6.89,3.09,7.56,6.91,.8,4.58-.73,7.83-4.64,9.88-.18,.1-.34,.24-.59,.41Zm-6.89-4.93c.74,0,1.48,.04,2.22,0,1.7-.11,2.98-1.35,3.12-2.96,.14-1.58-.97-3.04-2.65-3.35-.85-.16-1.73-.16-2.59-.17-3.28-.02-3.28,0-3.28,3.26s0,3.22,3.19,3.22Z"/><path class="cls-1" d="M224.66,242.55c1.84,3.86,3.74,7.87,5.78,12.16-2.52,0-4.72,.04-6.91-.04-.32-.01-.74-.53-.91-.9-1.32-2.87-2.6-5.77-3.89-8.66-1.11-2.48-1.23-2.54-4.17-2.02,0,.43,0,.89,0,1.36,0,3-.02,6,.01,9,.01,.92-.24,1.34-1.25,1.29-1.56-.08-3.13-.05-4.69,0-.77,.02-1.09-.24-1.09-1.04,.02-9.22,.01-18.44,0-27.65,0-.72,.27-1.02,1-1.01,4.35,.02,8.7-.11,13.04,.06,3.5,.14,6.31,1.76,7.65,5.15,1.3,3.29,1.25,6.6-1.06,9.47-.89,1.11-2.24,1.85-3.5,2.85Zm-10.1-8.4c0,.83-.06,1.66,.03,2.47,.04,.32,.43,.84,.66,.85,1.77,.02,3.56,.06,5.31-.17,1.55-.21,2.46-1.48,2.47-2.91,.01-1.56-.84-2.79-2.4-3.15-.96-.22-1.98-.23-2.97-.24-3.12-.03-3.12-.01-3.11,3.15Z"/><path class="cls-1" d="M240.93,239.8c0-2.17-.27-4.38,.05-6.51,.75-4.87,4.52-8.14,9.48-8.53,3.09-.24,6.09,.07,8.75,1.85,2.62,1.76,4.02,4.24,4.28,7.38,.07,.84-.22,1.19-1.09,1.17-1.65-.04-3.31,.04-4.95-.05-.35-.02-.87-.48-.96-.82-.65-2.53-2.32-3.83-4.81-3.6-2.31,.21-3.84,1.91-3.88,4.43-.04,3.09-.05,6.17,0,9.26,.06,3.3,2.85,5.3,6.01,4.4,1.98-.57,3.09-2.25,2.73-4.27-.05-.29-.51-.68-.81-.71-.95-.09-1.91-.09-2.86-.02-1,.07-1.31-.35-1.25-1.29,.06-1.08,.03-2.17,0-3.26-.02-.76,.26-1.12,1.06-1.12,3.26,.02,6.52-.02,9.78,.05,.35,0,.99,.53,.99,.82,.05,2.3,.16,4.63-.11,6.9-.62,5.18-4.01,8.46-9.24,9.03-3.02,.33-5.98,.08-8.66-1.63-2.81-1.79-4.3-4.38-4.57-7.63-.16-1.94-.03-3.91-.03-5.86h.08Z"/><path class="cls-1" d="M196.32,239.97c-.13,2.3-.03,4.63-.44,6.88-.88,4.89-5.05,8.11-10.43,8.31-3.95,.15-7.5-.79-10.11-4.03-1.39-1.71-2.14-3.72-2.2-5.88-.11-3.52-.18-7.05,0-10.57,.29-5.47,4.15-9.35,9.63-9.88,2.44-.24,4.87-.13,7.16,.9,4.12,1.85,6.06,5.16,6.25,9.57,.06,1.56,.01,3.13,.01,4.7h.12Zm-7.14,.16h0c0-1.65,.06-3.3-.01-4.95-.13-2.65-1.98-4.46-4.46-4.48-2.53-.01-4.47,1.72-4.56,4.36-.11,3.25-.12,6.51,.01,9.76,.11,2.7,2.05,4.43,4.55,4.36,2.59-.08,4.39-1.92,4.46-4.63,.04-1.47,0-2.95,0-4.43Z"/><path class="cls-1" d="M69.65,254.71c.12-.58,.17-1,.29-1.39,2.86-9.05,5.75-18.1,8.58-27.16,.27-.87,.66-1.17,1.55-1.15,2.22,.05,4.43,.04,6.65,0,.71-.01,1.1,.19,1.32,.91,2.96,9.39,5.94,18.78,8.91,28.16,.04,.12,.02,.25,.05,.63-1.61,0-3.19,.03-4.76,0-3.12-.06-2.51,.61-3.33-2.5-.39-1.47-.96-2.06-2.54-1.94-2.25,.16-4.52,.08-6.78,.02-.89-.02-1.35,.25-1.59,1.12-.29,1.08-.41,2.55-1.15,3.06-.81,.56-2.25,.22-3.41,.24-1.21,.02-2.42,0-3.8,0Zm10.32-9.92h6.72c-1.11-3.72-2.17-7.28-3.22-10.84h-.33c-1.05,3.58-2.09,7.16-3.16,10.84Z"/><path class="cls-1" d="M32.51,254.71c.31-1.1,.51-1.93,.77-2.74,2.7-8.55,5.42-17.1,8.09-25.66,.31-1.01,.78-1.36,1.84-1.31,2.12,.09,4.26,.06,6.38,.01,.76-.02,1.17,.19,1.41,.97,2.91,9.26,5.86,18.51,8.79,27.77,.07,.23,.08,.49,.15,.96-2.38,0-4.66,.03-6.93-.04-.26,0-.6-.56-.74-.92-.42-1.08-.46-2.68-1.22-3.17-.91-.58-2.42-.24-3.66-.26-1.65-.02-3.3,.03-4.95-.02-.83-.02-1.25,.25-1.48,1.09-.92,3.34-.95,3.33-4.41,3.33h-4.03Zm10.38-9.88h6.73c-1.11-3.72-2.17-7.3-3.23-10.88l-.36,.07-3.13,10.81Z"/><path class="cls-1" d="M191.73,297.56c.43,0,.87,.04,1.3,0,1.29-.14,2.19-.03,2.32,1.68,.06,.72,.94,1.56,1.66,2.01,1.58,1,3.37,1.05,5.15,.53,1.06-.31,1.7-1.08,1.83-2.15,.13-1.08-.48-1.86-1.45-2.24-1.98-.78-3.99-1.45-5.97-2.22-1.17-.46-2.34-.94-3.43-1.55-3.06-1.71-4.75-4.21-4.49-7.86,.24-3.29,1.94-5.57,4.87-6.81,4.65-1.97,9.25-1.82,13.54,1.01,2.52,1.67,3.72,4.15,3.76,7.2,0,.82-.22,1.19-1.1,1.16-1.56-.05-3.13-.04-4.69,0-.69,.02-1.02-.22-1.1-.94-.36-3.32-4.63-4.43-7.08-3.16-1.62,.84-1.8,2.94-.28,3.95,.96,.64,2.07,1.08,3.16,1.5,1.94,.75,3.94,1.36,5.87,2.14,3.71,1.51,5.51,4.02,5.48,7.44-.03,3.63-1.92,6.5-5.6,7.82-4.19,1.51-8.45,1.51-12.52-.51-3.22-1.61-4.74-4.32-4.62-7.95,.02-.76,.23-1.13,1.05-1.08,.78,.05,1.56,.01,2.35,.01Z"/><path class="cls-1" d="M.02,288.93c0-3.17,.03-6.35-.02-9.52-.01-.98,.23-1.43,1.31-1.38,1.47,.08,2.96,.07,4.43,0,1.04-.05,1.35,.34,1.34,1.36-.04,6.13-.03,12.26-.01,18.38,0,2.2,1.37,3.89,3.32,4.22,2.26,.38,4.14-.56,4.86-2.55,.27-.75,.35-1.61,.35-2.42,.03-5.82,.05-11.65,0-17.47-.01-1.21,.37-1.61,1.56-1.53,1.38,.1,2.78,.06,4.17,0,.94-.03,1.32,.28,1.32,1.27-.03,6.3,.06,12.61-.04,18.91-.09,5.36-4.08,9.38-9.46,9.76-3.03,.21-5.99,.06-8.64-1.69-2.87-1.89-4.32-4.59-4.43-7.96-.1-3.13-.02-6.26-.02-9.39H.02Z"/><path class="cls-1" d="M130.28,301.74c2.43,0,4.64,0,6.85,0,2.04,0,4.09,.02,6.13-.01,.79-.01,1.09,.27,1.06,1.07-.04,1.56-.01,3.12-.01,4.83-.49,.03-.91,.08-1.32,.08-6.08,0-12.17-.02-18.25,.03-1.13,0-1.5-.3-1.49-1.46,.04-8.91,.04-17.82,0-26.73,0-1.12,.32-1.52,1.48-1.51,6.08,.05,12.17,.04,18.25,0,1.01,0,1.43,.26,1.35,1.32-.08,1.12-.09,2.26,0,3.39,.09,1.09-.38,1.31-1.36,1.3-3.69-.04-7.39,.03-11.08-.04-1.22-.02-1.76,.27-1.63,1.58,.1,1.03,.05,2.08,.02,3.13-.02,.78,.28,1.06,1.08,1.05,2.3-.04,4.61,.03,6.91-.03,1.06-.03,1.39,.37,1.33,1.37-.06,1.13-.05,2.26,0,3.39,.04,.9-.27,1.24-1.2,1.22-2.3-.05-4.61,.02-6.91-.03-.9-.02-1.25,.26-1.22,1.17,.05,1.59,.01,3.19,.01,4.91Z"/><path class="cls-1" d="M87.85,278.07c2.35,0,4.6-.04,6.84,.05,.3,.01,.72,.67,.82,1.09,1.5,5.79,2.95,11.6,4.41,17.4,.09,.37,.22,.73,.43,1.4,.2-.65,.33-1.01,.42-1.37,1.42-5.76,2.86-11.52,4.25-17.29,.24-.98,.69-1.36,1.71-1.31,1.52,.08,3.04,.02,4.56,.02,1.45,0,1.54,.1,1.12,1.47-1.89,6.27-3.8,12.53-5.7,18.79-.84,2.78-1.73,5.55-2.52,8.34-.24,.83-.63,1.09-1.46,1.07-1.74-.05-3.48-.05-5.22,0-.74,.02-1.05-.24-1.26-.95-2.72-9.14-5.47-18.27-8.2-27.41-.11-.36-.12-.75-.2-1.3Z"/><path class="cls-1" d="M254.85,295.94c0,3.48-.03,6.96,.02,10.43,.01,1.01-.28,1.42-1.33,1.36-1.34-.08-2.7-.1-4.04,0-1.3,.11-1.71-.28-1.7-1.64,.07-6.65,.03-13.3,.03-19.95,0-.35-.02-.7,0-1.04,.04-.74-.33-.98-1.03-.97-1.91,.02-3.83-.01-5.74,.02-.82,.01-1.2-.28-1.17-1.14,.04-1.26,.04-2.52,0-3.78-.02-.82,.28-1.18,1.14-1.18,6.95,.02,13.91,.02,20.86,0,.84,0,1.16,.36,1.12,1.19-.05,1.04-.01,2.09-.01,3.13q0,1.76-1.83,1.76c-1.74,0-3.48,.04-5.22-.01-.86-.03-1.13,.28-1.12,1.13,.04,3.56,.02,7.13,.01,10.69Z"/><path class="cls-1" d="M107.81,239.89c0-4.48,.04-8.96-.03-13.43-.02-1.17,.37-1.53,1.5-1.46,1.39,.09,2.78,.08,4.17,0,1.12-.07,1.4,.38,1.39,1.43-.04,6.91,.01,13.82-.05,20.73-.01,1.28,.4,1.62,1.63,1.59,3.78-.07,7.56,0,11.34-.05,1.04-.01,1.39,.31,1.33,1.34-.07,1.21-.04,2.43-.01,3.65,.02,.72-.28,1.01-1.01,1.01-6.43-.01-12.87-.02-19.3,0-1,0-.98-.57-.98-1.27,0-4.52,0-9.04,0-13.56Z"/><path class="cls-1" d="M76.99,293.02c0,4.43-.03,8.86,.02,13.29,.01,1.04-.23,1.5-1.36,1.42-1.43-.09-2.87-.08-4.3,0-1.09,.06-1.41-.32-1.4-1.4,.04-7.21,.02-14.42,.02-21.63,0-1.78,.04-3.56-.02-5.34-.03-.95,.29-1.35,1.26-1.32,1.52,.04,3.04,.06,4.56,0,1.01-.04,1.24,.37,1.23,1.3-.04,4.56-.02,9.12-.02,13.68Z"/><path class="cls-1" d="M222.16,292.84c0-4.48,.03-8.96-.02-13.44-.01-1.03,.3-1.41,1.33-1.36,1.52,.06,3.04,.04,4.56,0,.84-.02,1.15,.31,1.15,1.15-.02,9.13-.02,18.26,0,27.4,0,.82-.26,1.17-1.13,1.13-1.52-.06-3.05-.08-4.56,0-1.04,.05-1.35-.29-1.34-1.33,.05-4.52,.02-9.05,.02-13.57Z"/></g></g></svg>