<?xml version="1.0" encoding="UTF-8"?><svg id="Layer_2" xmlns="http://www.w3.org/2000/svg" viewBox="0 0 392.85 143.41"><defs><style>.cls-1{fill:#023459;}.cls-2{fill:#c76c53;}</style></defs><g id="Layer_5"><g><path class="cls-1" d="M320.68,143.41c-2.07-.39-4.16-.67-6.2-1.19-14.06-3.59-23.36-15.54-23.29-30.04,.06-12.73,5.42-22.65,17.01-28.16,12.45-5.91,24.66-4.81,35.85,3.7,1.56,1.19,1.55,1.72,.17,3.16-1.52,1.59-3.03,3.18-4.53,4.78-1.29,1.38-1.63,1.41-3.06,.23-7.59-6.29-18.04-6.69-25.52-.68-6.99,5.62-9.61,13.07-7.56,21.78,2.02,8.59,7.69,13.83,16.34,15.54,6.03,1.19,11.66-.12,16.72-3.69,.61-.43,.89-.89,.88-1.67-.05-3.02-.02-6.05-.02-9.18-.55-.03-.97-.06-1.4-.06-4.12,0-8.23,0-12.35,0-1.65,0-2-.34-2-1.93,0-2.28-.01-4.55,0-6.83,0-1.34,.37-1.7,1.72-1.7,8.03,0,16.07,0,24.1,0,1.38,0,1.67,.3,1.67,1.71,0,7.23,.02,14.45-.03,21.68,0,.63-.38,1.37-.81,1.87-5.03,5.72-11.43,8.94-18.9,10.18-1.01,.17-2.03,.33-3.04,.5h-5.76Z"/><path class="cls-1" d="M0,82.08c.68-.23,1.36-.66,2.05-.66,10.91-.04,21.82-.03,32.73-.03,1.69,0,1.96,.26,1.97,1.93,0,2.16,0,4.31,0,6.47,0,1.86-.22,2.08-2.06,2.08-7.11,0-14.23,0-21.34,0h-1.43v15.64h1.34c5.16,0,10.31,0,15.47,0,1.63,0,1.93,.3,1.93,1.97,0,2.2,0,4.39,0,6.59,0,1.55-.34,1.87-1.92,1.87-5.16,0-10.31,0-15.47,0-.43,0-.87,0-1.34,0-.05,.38-.12,.65-.12,.92,0,4.07,.02,8.15-.03,12.22-.01,1.04,.55,1.03,1.29,1.03,7.47,0,14.95,0,22.42,0,2,0,2.12,.12,2.12,2.09,0,2.04,0,4.07,0,6.11,0,2.06-.16,2.22-2.28,2.22-6.35,0-12.71,0-19.06,0-4.72,0-9.43,.03-14.15-.03-.71-.01-1.42-.48-2.13-.74,0-19.89,0-39.77,0-59.66Z"/><path class="cls-1" d="M63.08,143.41c-1.86-.4-3.75-.71-5.58-1.2-4.71-1.26-8.83-3.67-12.55-6.76-1.11-.92-1.13-1.53-.12-2.59,1.71-1.79,3.42-3.58,5.14-5.37,.96-1,1.44-1.01,2.52-.04,3.97,3.53,8.5,5.62,13.91,5.44,4.73-.15,8.26-3.52,8.19-7.8-.04-2.46-1.16-4.46-3.2-5.71-2.2-1.35-4.56-2.44-6.9-3.54-3.18-1.49-6.49-2.7-9.58-4.35-4.38-2.35-7.5-5.86-8.32-10.94-1.19-7.35,2.09-13.96,8.82-17.28,9.05-4.46,17.93-3.45,26.54,1.42,.42,.24,.82,.5,1.2,.78,.69,.51,.82,1.19,.34,1.89-1.49,2.17-3,4.33-4.53,6.47-.6,.83-1.32,.68-2.08,.14-2.47-1.75-5.23-2.72-8.24-2.97-2.56-.21-5.03,.19-7.29,1.45-4.05,2.25-4.41,6.95-.57,9.53,2.03,1.36,4.37,2.28,6.6,3.33,3.46,1.63,7.06,3.01,10.39,4.86,4.09,2.27,6.99,5.67,8.08,10.36,2.12,9.16-2.39,17.58-11.42,21.13-1.84,.72-3.84,1.01-5.77,1.5-.26,.07-.52,.16-.78,.24h-4.8Z"/><path class="cls-1" d="M160.22,143.41c-1.12-.25-2.25-.46-3.35-.76-4.71-1.32-8.38-4.01-10.82-8.29-.75-1.32-.59-1.81,.82-2.52,2.25-1.13,4.49-2.25,6.74-3.37,1.38-.68,1.69-.59,2.52,.71,2.18,3.41,5.91,4.67,9.32,3.13,2.2-.99,3.35-2.76,3.64-5.1,.13-1.03,.18-2.07,.18-3.1,.01-13.53,0-27.06,0-40.59,0-1.94,.19-2.13,2.12-2.13,2.64,0,5.27,0,7.91,0,1.31,0,1.74,.4,1.74,1.69,0,14.13,.07,28.26-.08,42.38-.1,9.94-5.95,16.34-15.78,17.72-.23,.03-.44,.15-.66,.22h-4.32Z"/><path class="cls-2" d="M204.73,22.55v1.4c0,11.98,0,23.96,0,35.94,0,1.84-.17,2.01-1.95,2.02-2.68,0-5.36-.02-8.03,.01-1.11,.01-1.57-.4-1.57-1.55,.02-19.21,.02-38.41,0-57.62,0-1.1,.38-1.62,1.54-1.58,1.88,.05,3.76-.04,5.63,.05,.56,.03,1.26,.31,1.62,.73,10.57,12.29,21.1,24.62,31.65,36.94,.53,.62,1.08,1.21,1.62,1.82l.31-.13c.03-.49,.08-.99,.08-1.48,0-11.98,0-23.96,0-35.94,0-1.92,.05-1.97,1.94-1.97,2.64,0,5.28,0,7.91,0,1.31,0,1.69,.38,1.71,1.72,.02,1.12,0,2.24,0,3.35,0,17.77,0,35.54,0,53.3,0,2.24-.11,2.35-2.38,2.35-1.2,0-2.41-.11-3.59,.03-1.64,.18-2.7-.43-3.76-1.69-10.5-12.36-21.06-24.66-31.61-36.97-.25-.29-.53-.56-.79-.84l-.32,.11Z"/><path class="cls-1" d="M36.74,27.86c2.76,1.49,4.96,3.64,6.55,6.4,6.25,10.82-.02,24.69-12.34,27.16-2.14,.43-4.35,.64-6.54,.66-7.35,.08-14.71,.03-22.06,.03-1.79,0-2.08-.29-2.08-2.08,0-19.01,0-38.01,0-57.02,0-1.75,.21-1.98,1.89-1.97,7.31,.02,14.63-.1,21.94,.11,8.1,.24,14.37,5.52,16.03,13.16,1,4.6-.14,8.77-2.81,12.57-.18,.26-.38,.51-.56,.77-.02,.03,0,.08-.02,.21Zm-24.53,7.17c-.07,.28-.14,.43-.14,.58,0,5.06,0,10.13-.02,15.19,0,.71,.33,.86,.95,.86,3.95-.02,7.9,.07,11.85-.04,3.8-.1,6.97-1.45,8.5-5.24,2.2-5.43-1.62-11.01-7.76-11.26-3.43-.14-6.86-.06-10.29-.08-1.03,0-2.06,0-3.08,0Zm-.16-16.93c0,1.84-.03,3.67,.03,5.51,.01,.33,.44,.92,.68,.92,3.31,0,6.64,.1,9.93-.18,3.58-.3,6.1-3.19,6.01-6.43-.09-3.34-2.61-6.06-6.18-6.3-3.22-.22-6.47-.11-9.7-.17-.78-.01-.79,.47-.79,1.03,0,1.88,0,3.75,0,5.63Z"/><path class="cls-1" d="M132.95,108.01c1.5,1.28,3.13,2.36,4.36,3.78,4.58,5.29,5.8,11.42,3.53,17.99-2.32,6.71-7.16,10.83-14.19,12.14-2.22,.41-4.52,.55-6.79,.57-7.07,.07-14.15,.03-21.22,.02-2,0-2.19-.19-2.19-2.19,0-18.93,0-37.85,0-56.78,0-1.93,.22-2.15,2.1-2.15,6.44,0,12.87-.04,19.31,.01,4.94,.04,9.58,1.01,13.4,4.51,6.27,5.74,7.15,14.88,2.02,21.65-.14,.18-.27,.37-.33,.45Zm-24.69,7.43v16.85c5.23-.21,10.36-.33,15.48-.65,1.6-.1,3.01-1.02,4.12-2.25,2.26-2.52,2.85-5.41,1.69-8.55-1.2-3.24-3.71-5.01-7.09-5.2-3.94-.23-7.89-.14-11.84-.19-.75,0-1.5,0-2.35,0Zm0-23.36v13.08c3.79-.14,7.52-.05,11.17-.5,3.34-.41,5.45-3.19,5.4-6.3-.05-3.19-2.25-5.92-5.63-6.21-3.59-.31-7.23-.07-10.93-.07Z"/><path class="cls-1" d="M269.78,117.03c3.3,4.14,6.48,8.14,9.66,12.13,2.89,3.62,5.79,7.23,8.64,10.88,.35,.45,.7,1.31,.5,1.65-.26,.44-1.07,.77-1.66,.78-3.4,.07-6.79,.02-10.19,.05-.88,0-1.47-.32-2.01-1.02-5.89-7.56-11.82-15.09-17.71-22.65-.52-.67-1.03-1-1.89-.94-.98,.07-1.98,.02-3.12,.02v1.52c0,6.99,0,13.98,0,20.96,0,1.8-.28,2.09-2.08,2.09-2.64,0-5.28,.01-7.91,0-1.47,0-1.84-.37-1.84-1.85,0-19.13,0-38.25,0-57.38,0-1.54,.36-1.89,1.91-1.89,7,0,13.99-.04,20.99,.01,4.23,.03,8.27,.91,11.68,3.61,4.33,3.42,6.32,8.04,6.47,13.45,.06,2.18-.08,4.41-.51,6.54-1.11,5.5-4.58,9.15-9.59,11.46-.39,.18-.79,.33-1.34,.57Zm-17.71-9.55c1.47,0,2.78,.02,4.09,0,2.75-.05,5.51,0,8.24-.24,2.62-.24,4.25-1.9,4.76-4.49,.21-1.05,.24-2.13,.3-3.2,.25-4.96-2.28-7.64-7.25-7.67-3.03-.02-6.07,0-9.1,0-.34,0-.69,.05-1.04,.07v15.53Z"/><path class="cls-1" d="M55.59,21.1c0-6.07,0-12.14,0-18.2,0-1.68,.18-1.86,1.86-1.86,2.68,0,5.35,0,8.03,0,1.6,0,1.89,.28,1.89,1.89,0,11.74-.02,23.47,.02,35.21,.01,3.99,1.03,7.64,4.05,10.52,6.09,5.81,17.26,4.96,22.19-1.72,1.85-2.51,2.53-5.43,2.54-8.46,.06-11.74,.04-23.47,.05-35.21,0-2.15,.08-2.23,2.22-2.23,2.6,0,5.19,0,7.79,0,1.45,0,1.75,.25,1.75,1.64-.02,12.17,.18,24.35-.15,36.52-.24,8.88-3.84,16.35-12.13,20.46-9.98,4.94-20.1,4.7-29.73-1.09-5.67-3.4-8.67-8.82-9.77-15.24-.45-2.62-.53-5.31-.58-7.98-.09-4.75-.02-9.5-.02-14.25Z"/><path class="cls-1" d="M273.02,11.42v15.51c.41,.02,.83,.06,1.25,.06,5.2,0,10.39,0,15.59,0,1.64,0,1.86,.22,1.86,1.88,0,2.24,0,4.47,0,6.71,0,1.62-.27,1.89-1.88,1.89-5.16,0-10.31,0-15.47,0-.43,0-.86,0-1.42,0v4.05c0,2.95,.04,5.91-.02,8.86-.02,.96,.29,1.22,1.22,1.21,7.51-.03,15.03-.02,22.54-.02,1.83,0,2.08,.25,2.08,2.07,0,2.16,0,4.31,0,6.47,0,1.52-.34,1.87-1.8,1.87-11.35,0-22.7,0-34.05,0-1.47,0-1.72-.27-1.72-1.78,0-19.16,0-38.33,0-57.49,0-1.5,.33-1.84,1.82-1.84,10.99,0,21.98,0,32.97,0,1.54,0,1.87,.35,1.87,1.92,0,2.24,0,4.47,0,6.71,0,1.56-.3,1.85-1.91,1.85-7.23,0-14.47,0-21.7,0-.39,0-.78,.04-1.23,.06Z"/><path class="cls-1" d="M204.91,91.87v15.64h1.36c5.2,0,10.39,0,15.59,0,1.5,0,1.74,.24,1.75,1.74,0,2.36,.01,4.71,0,7.07,0,1.31-.31,1.61-1.64,1.62-5.2,0-10.39,0-15.59,0-.47,0-.93,0-1.47,0v14.16h1.59c7.39,0,14.79,0,22.18,0,1.72,0,1.98,.27,1.99,2.03,0,2.2,.01,4.39,0,6.59,0,1.39-.38,1.79-1.78,1.79-11.35,0-22.7,.01-34.05,0-1.48,0-1.74-.29-1.74-1.78,0-19.16,0-38.33,0-57.49,0-1.53,.3-1.84,1.8-1.84,10.99,0,21.98,0,32.97,0,1.57,0,1.89,.32,1.89,1.89,0,2.28,0,4.55,0,6.83,0,1.38-.38,1.76-1.78,1.76-7.19,0-14.39,0-21.58,0h-1.48Z"/><path class="cls-1" d="M326.44,62.97c-7.89-.09-14.68-3.03-20.66-8.04-.93-.78-.96-1.42-.12-2.31,1.7-1.8,3.41-3.59,5.13-5.37,1.17-1.21,1.56-1.21,2.78-.1,2.94,2.66,6.32,4.44,10.25,5.12,2.95,.51,5.83,.38,8.42-1.34,4.15-2.76,4.55-8.49,.61-11.52-1.96-1.51-4.31-2.55-6.57-3.62-3.35-1.59-6.86-2.85-10.15-4.54-3.87-2-6.86-4.96-8.15-9.28-2.29-7.62,1.06-15.53,8.42-19.12,9.53-4.65,18.74-3.35,27.55,2.12,.89,.55,.99,1.31,.41,2.14-1.43,2.07-2.88,4.13-4.33,6.18-.65,.92-1.35,.86-2.25,.27-4.33-2.87-9-3.85-14.02-2.16-2.3,.78-4.07,2.19-4.58,4.76-.35,1.75,.04,3.37,1.4,4.46,1.48,1.18,3.11,2.24,4.82,3.04,4.04,1.91,8.25,3.46,12.22,5.48,4.58,2.33,7.94,5.87,9.18,11.06,2.23,9.33-2.87,18.29-12.39,21.42-2.55,.84-5.27,1.14-7.91,1.69l-.07-.33Z"/><path class="cls-1" d="M371.79,62.96c-7.85-.11-14.59-3.06-20.54-8.02-.94-.79-.98-1.44-.15-2.32,1.75-1.86,3.52-3.7,5.3-5.54,.97-1,1.45-.99,2.52-.03,2.97,2.68,6.37,4.52,10.33,5.2,2.9,.5,5.74,.4,8.32-1.26,4.11-2.64,4.7-8.15,1.01-11.34-1.68-1.45-3.79-2.49-5.83-3.45-2.96-1.39-6.07-2.45-9.03-3.82-3.86-1.79-7.3-4.16-9.33-8.08-3.55-6.83-1.34-15.43,5.18-20.09,5-3.57,10.65-4.51,16.63-3.97,4.65,.42,8.96,1.91,12.87,4.48,1.36,.89,1.45,1.38,.52,2.71-1.26,1.8-2.52,3.6-3.78,5.39-1.03,1.47-1.32,1.48-2.89,.49-4.28-2.7-8.85-3.57-13.73-1.92-2.86,.97-4.54,3.05-4.65,5.5-.09,1.99,.82,3.53,2.4,4.55,1.74,1.11,3.6,2.05,5.48,2.9,3.16,1.44,6.42,2.64,9.54,4.14,3.68,1.78,6.89,4.21,8.87,7.93,4.04,7.57,1.82,16.94-5.25,22.22-3.83,2.86-8.84,4.43-13.8,4.33Z"/><path class="cls-1" d="M135.84,62.95c-6.22-.06-13.01-3-19-7.99-1-.83-1.01-1.44-.1-2.41,1.75-1.86,3.52-3.7,5.3-5.54,.84-.87,1.42-.88,2.35-.03,3.61,3.27,7.76,5.29,12.68,5.53,4.66,.22,8.6-2.22,9.35-6.28,.53-2.88-.36-5.32-2.69-6.96-1.94-1.37-4.12-2.41-6.28-3.42-3.32-1.55-6.8-2.78-10.05-4.46-4.26-2.2-7.53-5.43-8.64-10.31-1.79-7.84,1.86-15.3,9.48-18.65,9.29-4.08,18.23-2.82,26.7,2.52,.98,.62,1.05,1.31,.34,2.33-1.34,1.94-2.7,3.86-4.06,5.78-.82,1.16-1.26,1.22-2.47,.43-4.08-2.68-8.48-3.67-13.23-2.32-1.23,.35-2.46,1.02-3.44,1.83-2.62,2.17-2.68,5.9-.03,8,1.6,1.27,3.5,2.22,5.36,3.08,3.51,1.63,7.14,2.98,10.62,4.66,3.2,1.55,5.96,3.73,7.88,6.8,4.14,6.63,3.66,17.8-5.9,23.89-3.81,2.43-8,3.54-14.18,3.5Z"/><path class="cls-2" d="M169.42,31.52c0-9.5,0-18.99,0-28.49,0-1.75,.1-1.85,1.82-1.85,2.68,0,5.35,0,8.03,0,1.32,0,1.7,.37,1.71,1.71,.02,2.51,0,5.03,0,7.54,0,16.4,0,32.8,0,49.2,0,2.1-.17,2.27-2.22,2.27-2.52,0-5.03,0-7.55,0-1.64,0-1.79-.16-1.79-1.78,0-9.54,0-19.07,0-28.61Z"/></g></g></svg>