<?xml version="1.0" encoding="UTF-8"?><svg id="Layer_2" xmlns="http://www.w3.org/2000/svg" viewBox="0 0 631.44 34.77"><g id="Layer_4"><g><path d="M631.44,34.6c-.18,0-.37-.02-.55-.02-3.21-.02-6.43,0-9.64-.07-2.01-.04-3.99-.36-5.87-1.13-2.42-.98-4.16-2.74-5.54-4.88-1.78-2.77-3.47-5.59-5.2-8.39-1.67-2.7-3.33-5.41-5-8.11-.95-1.54-2.02-2.99-3.42-4.16-1.53-1.28-3.29-1.93-5.29-1.92-.68,0-1.36,0-2.1,0v28.63h-6.75V.24c.11-.01,.22-.03,.33-.03,3.21,0,6.43,.02,9.64,0,4.55-.03,8.21,1.8,11.16,5.2,1.41,1.63,2.56,3.44,3.67,5.27,2.68,4.4,5.32,8.81,8.01,13.2,.58,.95,1.27,1.85,1.97,2.72,1.19,1.47,2.77,2.23,4.66,2.29,.88,.03,1.76,0,2.68,0V.22h7.24V34.6Z"/><path d="M369.16,34.77c-.98-.06-1.95-.12-2.93-.17-2.77-.14-5.53-.36-8.2-1.19-1.99-.62-3.77-1.59-5.06-3.28-1.14-1.49-1.71-3.22-1.98-5.05-.47-3.21-.44-6.45-.36-9.68,.04-1.89,.1-3.81,.42-5.67,.82-4.7,3.75-7.55,8.29-8.82,1.59-.45,3.23-.66,4.88-.69C368.56,.13,372.89,0,377.23,0c2.76,0,5.51,.15,8.27,.32,2.15,.13,4.25,.56,6.24,1.44,3.12,1.38,4.9,3.81,5.5,7.12,.41,2.3,.43,4.63,.42,6.95-.02,2.42-.04,4.85-.24,7.27-.46,5.39-3.41,8.89-8.61,10.47-2.07,.63-4.19,.91-6.33,1.03-1.02,.06-2.04,.11-3.06,.17h-10.24Zm5.07-5.6v-.1c2.05,0,4.1,.02,6.14,0,1.47-.02,2.92-.15,4.35-.51,2.87-.71,4.77-2.41,5.3-5.37,.23-1.26,.28-2.56,.33-3.85,.12-2.89,.13-5.78-.38-8.65-.47-2.63-1.61-3.89-4.26-4.34-1.93-.33-3.89-.53-5.85-.57-3.86-.08-7.73-.05-11.6,0-1.7,.02-3.41,.12-5.1,.33-2.64,.33-4.18,1.74-4.76,4.34-.27,1.21-.38,2.46-.45,3.71-.17,3.2-.13,6.41,.28,9.59,.32,2.47,1.67,4.1,4.15,4.63,1.41,.3,2.86,.51,4.29,.59,2.51,.14,5.03,.15,7.54,.21Z"/><path d="M242.52,.2V5.91h-.56c-11.39,0-22.78,0-34.17,.01-.67,0-1.37,.08-2.01,.27-1.53,.46-2.36,1.56-2.54,3.13-.06,.49-.05,1,.03,1.48,.29,1.84,1.46,2.9,3.41,3.1,.49,.05,.99,.08,1.49,.08,8.05,0,16.1,0,24.15,.01,1.88,0,3.71,.28,5.46,1,2.59,1.06,4.29,2.92,5.07,5.59,.68,2.31,.78,4.67,.21,7.02-.76,3.11-2.83,5.02-5.79,6.04-2.05,.71-4.19,.92-6.34,.92-11.38,0-22.75,0-34.13,0h-.45v-5.67h.55c11.49,0,22.98,0,34.47,0,.58,0,1.17-.05,1.73-.16,1.88-.37,2.92-1.55,3.04-3.47,.04-.62,.01-1.26-.1-1.86-.37-1.91-1.73-3-3.78-3.1-.43-.02-.85-.01-1.28-.01-8.28,0-16.55,0-24.83,0-1.59,0-3.14-.22-4.62-.86-2.44-1.05-4.09-2.84-4.87-5.37-.81-2.61-.76-5.25,.21-7.81,1.33-3.51,4-5.4,7.66-5.95,.6-.09,1.22-.11,1.83-.11,11.89,0,23.78,0,35.66,0,.15,0,.31,0,.5,0Z"/><path d="M569.74,34.58c-.2,0-.35,0-.51,0-10.52,0-21.04,0-31.57,0-1.81,0-3.6-.16-5.32-.8-3.16-1.18-4.95-3.68-4.99-7.05-.04-4.03-.05-8.06-.07-12.08,0-1.9-.03-3.8,0-5.7,.01-1.46,.28-2.88,.94-4.2,1.19-2.39,3.19-3.72,5.74-4.25,.92-.19,1.89-.28,2.83-.28,10.84-.02,21.67-.01,32.51-.01,.14,0,.28,0,.45,0V5.85h-.54c-10.12,0-20.25,0-30.37,0-.44,0-.88,.02-1.32,.07-1.6,.16-2.64,1.11-2.81,2.71-.13,1.22-.09,2.46-.12,3.69-.01,.61,0,1.21,0,1.86h35.16v5.76h-35.12c-.02,.12-.04,.2-.04,.28,0,1.7,0,3.4,.01,5.11,0,.35,.05,.71,.12,1.05,.35,1.58,1.35,2.42,3,2.51,.24,.01,.48,0,.72,0,10.24,0,20.48,0,30.71,0h.58v5.67Z"/><path d="M416.56,5.92v28.62h-6.71V.2c.13,0,.26,0,.39,0,3.14,0,6.29,.03,9.43,0,4.55-.05,8.22,1.76,11.2,5.13,1.73,1.96,3.05,4.2,4.4,6.41,2.47,4.04,4.89,8.12,7.36,12.15,.58,.95,1.27,1.85,1.98,2.71,1.2,1.47,2.77,2.22,4.67,2.28,.86,.02,1.73,0,2.64,0V.23h7.25V34.54c-.11,.01-.21,.03-.3,.03-3.3-.02-6.6,0-9.9-.07-2.2-.05-4.36-.41-6.37-1.36-1.97-.93-3.49-2.4-4.67-4.19-1.44-2.18-2.79-4.41-4.17-6.63-2.15-3.46-4.27-6.93-6.42-10.38-1.02-1.65-2.18-3.19-3.74-4.38-1.44-1.09-3.07-1.64-4.87-1.65-.71,0-1.41,0-2.16,0Z"/><path d="M471.57,34.58V.17c.95,0,1.88,0,2.82,0,8.7,.01,17.4,0,26.1,.06,2.85,.02,5.67,.35,8.39,1.26,4.28,1.42,6.66,4.42,7.18,8.82,.56,4.66,.57,9.34-.15,13.99-.23,1.48-.62,2.91-1.31,4.25-1.31,2.56-3.52,3.96-6.19,4.77-2.1,.64-4.27,.95-6.45,1.11-6.09,.44-12.19,.23-18.29,.24-3.88,0-7.76-.05-11.64-.09-.14,0-.28,0-.47,0Zm7.23-5.7c.11,0,.16,.02,.22,.02,6,.02,12,.07,18,.06,2.1,0,4.21-.11,6.27-.56,3.45-.76,5.17-2.55,5.64-6.04,.46-3.42,.5-6.84-.02-10.26-.38-2.54-1.63-4.41-4.12-5.32-1.56-.58-3.2-.83-4.85-.84-6.91-.04-13.82-.03-20.73-.03-.14,0-.27,.01-.41,.02V28.88Z"/><path d="M343.13,.2V5.84h-.53c-10.04,0-20.08,0-30.12,0-.52,0-1.06,.02-1.57,.11-1.63,.28-2.59,1.25-2.82,2.92-.12,.92-.11,1.87-.13,2.8-.02,.82,0,1.64,0,2.5h35.16v5.76h-35.14v14.6h-7.3c-.01-.1-.03-.21-.03-.32,0-8.45,0-16.91,.01-25.36,0-1.83,.37-3.58,1.37-5.15,1.22-1.92,3.05-2.92,5.24-3.3,.81-.14,1.64-.2,2.46-.2,10.98-.01,21.96,0,32.93,0,.14,0,.28,0,.47,0Z"/><path d="M0,.2c.2,0,.34,0,.48,0,2.53,0,5.06,0,7.59,0,.34,0,.5,.12,.66,.39,5.5,9.3,11.01,18.59,16.51,27.9,.19,.32,.39,.44,.76,.43,2.2-.02,4.41-.02,6.61,0,.33,0,.53-.09,.72-.38,6.2-9.3,12.4-18.6,18.6-27.91,.22-.32,.44-.43,.82-.43,2.42,.02,4.83,0,7.25,0,.15,0,.3,0,.52,0-.12,.19-.2,.32-.28,.45-7.54,11.19-15.08,22.37-22.62,33.56-.18,.26-.36,.37-.68,.37-5.15-.01-10.3-.01-15.44,0-.33,0-.5-.12-.67-.39C13.98,23.01,7.12,11.84,.26,.66c-.08-.13-.15-.26-.26-.46Z"/><path d="M52.1,34.58c.55-.81,1.03-1.52,1.52-2.24,5.35-7.89,10.69-15.79,16.07-23.66,2.23-3.27,5.12-5.8,8.88-7.23,2.39-.91,4.88-1.25,7.44-1.25,14.96,0,29.92,0,44.88,0,.14,0,.28,0,.46,0V5.85h-.57c-13.92,0-27.84,0-41.76,0-1.9,0-3.81,.13-5.68,.52-2.74,.56-4.85,2.11-6.51,4.28-1.3,1.7-2.51,3.47-3.72,5.24-4.17,6.09-8.32,12.18-12.47,18.28-.21,.31-.43,.42-.8,.41-2.39-.02-4.78,0-7.17,0h-.56Z"/><path d="M131.34,14.22v5.74h-32.54v.72c0,1.45,0,2.89,0,4.34,0,2.15,1.18,3.49,3.31,3.79,.49,.07,.99,.1,1.49,.1,9.06,0,18.12,0,27.17,0h.57v5.65c-.15,0-.3,.02-.45,.02-9.87,0-19.74,0-29.61,0-2.28,0-4.44-.49-6.28-1.91-2.27-1.74-3.38-4.11-3.44-6.92-.08-3.79-.02-7.57-.02-11.36,0-.04,0-.08,.02-.16h39.78Z"/><path d="M292.7,.23V5.83h-18.17v28.72h-7.29V5.87h-18.18V.23h43.64Z"/><path d="M163.23,17.07c9.43,5.83,18.79,11.61,28.27,17.47-.24,.02-.36,.03-.47,.03-3.67,0-7.34,0-11,0-.2,0-.43-.06-.59-.17-7.71-4.75-15.41-9.51-23.12-14.27-.2-.13-.29-.25-.29-.5,.01-1.7,.01-3.4,0-5.11,0-.24,.07-.38,.28-.5,7.7-4.55,15.39-9.11,23.09-13.66,.15-.09,.34-.16,.51-.16,3.41,0,6.82,0,10.24,0,.07,0,.13,.01,.33,.03-9.12,5.64-18.14,11.21-27.25,16.84Z"/><path d="M149.57,34.55h-7.21V.23h7.21V34.55Z"/></g></g></svg>