<?xml version="1.0" encoding="UTF-8"?><svg id="Layer_2" xmlns="http://www.w3.org/2000/svg" viewBox="0 0 2464.97 460.81"><defs><style>.cls-1{fill:#87bb24;}</style></defs><g id="Layer_1-2"><g><path d="M0,1.73c1.63,0,2.94,0,4.24,0,52.8,.03,105.61-.31,158.4,.23,36.44,.37,71.92,6.6,105.14,22.35,50.89,24.14,82.45,64.28,96.88,118.25,8.06,30.15,10.05,60.94,8.69,91.99-1.14,26-4.64,51.65-12.69,76.49-23.31,71.91-72.57,115.83-145.57,133.86-23.72,5.86-47.92,7.96-72.29,8.01-46.31,.1-92.61,.04-138.92,.04-1.15,0-2.29,0-3.89,0V1.73ZM118.93,352.58c.86,.18,1.49,.44,2.11,.42,15.79-.58,31.73-.04,47.34-2.02,32.33-4.1,55.79-21.02,68.74-51.49,7.51-17.67,10.92-36.23,12.15-55.22,1.75-27.16,1.29-54.19-6.4-80.62-9.77-33.61-30.74-56.06-66.1-61.24-18.63-2.73-37.83-1.59-56.78-2.18-.29,0-.58,.29-1.07,.55v251.81Z"/><path d="M926.63,278.01c.24-25.49,4.16-55.55,17.46-83.61,21.75-45.89,58.71-71.97,108.23-80.65,31.71-5.56,63.4-5.18,94.39,4.53,45.65,14.3,77.85,43.85,94.45,88.5,20.09,54,19.51,108.81-1.93,162.23-19.23,47.93-56.31,75.96-106.82,85.82-34.69,6.78-69.38,6.25-103.03-5.55-46.92-16.45-76.91-49.75-92.64-96.3-7.12-21.09-10.2-44.37-10.12-74.97Zm212.73,6.44c0-3.16,.13-6.32-.02-9.47-.87-18.63-2.34-37.17-10.17-54.51-7.22-15.99-20.11-23.37-37.24-23.72-17-.35-30.78,5.87-38.44,21.69-3.51,7.24-6.1,15.12-7.8,23-4.65,21.62-4.65,43.57-2.9,65.5,1.15,14.44,3.63,28.67,9.89,41.95,5.39,11.44,13.78,19.37,26.37,22.41,24.69,5.96,44-4.45,52.39-28.38,6.64-18.94,7.69-38.66,7.92-58.48Z"/><path d="M2304.97,316.07h-202.85c.94,20.24,8.39,36.46,25.01,47.86,12.35,8.47,26.4,11.66,41.08,12.17,32.16,1.11,63.35-3.76,93.28-15.89,.92-.37,1.87-.7,2.82-.99,.3-.09,.66-.01,1.54-.01,5.73,24.88,11.48,49.88,17.28,75.06-18.04,9.59-36.79,16.28-56.59,19.5-34.68,5.64-69.55,7.43-104.45,2.22-44.97-6.71-82.47-26.2-108.05-65.11-14.17-21.55-21.53-45.61-24.53-70.97-4.2-35.5-2.92-70.79,7.61-105.19,18.28-59.7,59.08-93.42,120.67-102.07,31.66-4.44,63.2-3.32,93.87,6.48,48.11,15.38,77.45,48.39,88.06,97.38,3.39,15.63,4.28,31.92,5.07,47.96,.84,16.9,.19,33.87,.19,51.59Zm-103.36-73.47c.45-25.96-14.94-54-49.03-53.23-28.11,.63-49.73,24.45-47.45,53.23h96.48Z"/><path d="M724.57,315.95h-201.85c-1.6,21.97,12.38,43.69,33.98,53.29,12.41,5.52,25.55,7.03,38.99,7.03,29.61,0,58.28-4.92,85.79-16.06,1.19-.48,2.46-.79,4.24-1.36,2.29,9.76,4.54,19.25,6.73,28.74,3.25,14.08,6.32,28.2,9.78,42.22,.91,3.7-.22,5.25-3.4,6.82-25.46,12.52-52.52,18.64-80.68,20.72-29.32,2.17-58.56,2.71-87.53-3.39-43.28-9.13-77.93-30.83-100.58-69.63-12.27-21.03-18.55-44.07-20.99-68.08-3.19-31.46-2.12-62.79,5.77-93.6,10.4-40.62,31.91-73.17,69.63-93.51,20.39-10.99,42.48-16.24,65.44-17.93,29.81-2.19,59.32-.57,87.65,9.83,46.13,16.93,73.23,50.49,82.81,98.05,2.93,14.56,3.68,29.65,4.36,44.55,.72,15.77,.18,31.59,.16,47.39,0,1.45-.17,2.91-.3,4.89Zm-199.58-73.44h96.36c2.82-27.73-18.29-52.42-45.04-53.05-30.64-.73-53.09,22.3-51.32,53.05Z"/><path d="M1947.68,203.23h-72.28c0,2.18,0,3.93,0,5.68,0,41.09,0,82.17,.02,123.26,0,2.49,.1,4.99,.38,7.47,2.13,18.98,11.9,27.68,31.15,27.45,16.66-.2,32.59-4.28,48.27-9.53,1.71-.58,3.44-1.11,5.56-1.8,.14,1.25,.33,2.16,.33,3.07,.02,25.78,.06,51.57-.1,77.35-.01,1.69-1.24,4.32-2.6,4.92-40,17.66-81.73,22.09-124.55,14.32-39.3-7.13-60.94-32.5-68.42-70.56-2.46-12.49-3.88-25.37-4.02-38.09-.48-45.74-.21-91.48-.22-137.23,0-1.81,0-3.61,0-5.92h-39.44V116.59h39.23V29.15c38.21-6.21,75.91-12.35,114.2-18.57V116.15h72.49v87.08Z"/><path d="M1612.71,116.44h72.24v86.78h-72.21c0,2.41,0,4.2,0,6,0,40.59,0,81.18,.02,121.78,0,2.99,.13,5.99,.37,8.97,1.39,17.41,11.36,26.88,28.93,27.1,17.37,.22,33.96-4.02,50.28-9.49,1.71-.57,3.43-1.07,5.62-1.75,.14,1.83,.35,3.23,.35,4.63,.02,25.12,0,50.24,.02,75.36,0,2.33,.19,4.31-2.76,5.58-40.16,17.28-81.85,21.8-124.67,13.95-39.57-7.26-61.13-32.94-68.31-71.22-2.65-14.13-3.84-28.71-4.01-43.1-.5-43.75-.18-87.5-.18-131.26v-6.38h-39.48V116.67h39.21c.11-2.32,.26-4.07,.27-5.82,.02-24.95,.1-49.91-.07-74.86-.03-4.16,.81-5.83,5.43-6.6,35.28-5.89,70.5-12.18,105.74-18.34,.8-.14,1.64-.09,3.23-.17V116.44Z"/><path d="M769.27,0h112.85V452.66h-112.85V0Z"/><path d="M1413.12,452.72h-112.66V116.72h112.66V452.72Z"/><path d="M1300.38,75.24V.12h112.63V75.24h-112.63Z"/><circle class="cls-1" cx="2398.9" cy="394.74" r="66.07"/></g></g></svg>