<?xml version="1.0" encoding="UTF-8"?><svg id="Layer_2" xmlns="http://www.w3.org/2000/svg" viewBox="0 0 640 400.83"><defs><style>.cls-1{fill:#f3f3f3;}</style></defs><g id="Layer_1-2"><path class="cls-1" d="M506.1,71.93c-17.97-20.17-61.46-61.65-122.7-71.1-22.5-3.35-45.39,3.61-63.41,18.21-17.99-13.74-40.89-20.79-63.49-17.35C176.8,14,126.7,81.03,124.6,83.93c-7.84,10.69-5.53,25.72,5.13,33.57,4.28,3.16,9.28,4.66,14.19,4.66,7.41,0,14.69-3.38,19.38-9.78,.41-.56,40.19-53.91,100.5-63.23,7.46-.96,14.98,.67,21.56,4.48l-58.16,59.4c-12.4,12.3-20.1,27.9-20.1,46.3s6.81,33.94,19.16,46.29c13.24,12.41,29.64,18.31,47.14,18.31s33.94-6.81,46.31-19.19l11.35-11.35,124.2,100.9c2.31,1.88,2.66,5.25,.5,7.97l-27.69,35.75c-1.84,2.25-5.25,2.59-7.16,1.06l-22.22-18.69-26.19,27.75c-2.34,2.88-5.34,3.56-6.91,3.72-1.66,.16-4.56,.12-6.81-1.72l-32.41-27.66-15.68,14.66-2.81,2.94c-5.84,7.16-14.09,11.66-23.28,12.6-9.47,.81-18.25-1.75-24.5-6.78l-89.81-81.26H96V73.13H0v255.6l64,.04c11.74,0,21.57-6.71,27.14-16.14h60.64l77.06,69.66c14.86,12.14,33.06,18.54,51.96,18.54,2.88,0,5.78-.12,8.66-.44,13.62-1.41,26.41-6.06,37.47-13.5l.91,.81c12.03,9.88,27.28,14.41,42.69,12.78,13.19-1.38,25.28-7.03,33.91-15.35,21.09,8.19,46.09,2.34,61.25-16.47l27.69-35.75c18.47-22.82,14.97-56.48-7.84-75.01l-120.3-97.76,8.38-8.38c9.38-9.38,9.38-24.57,0-33.94-9.38-9.38-24.56-9.38-33.94,0l-53.87,53.81c-6.6,6.7-18.1,6.7-24.7,0-3.31-3.28-5.12-7.66-5.12-12.31s1.81-9.06,5.28-12.53l85.91-87.64c7.81-7.85,18.53-11.75,28.94-10.03,59.75,9.22,100.2,62.73,100.6,63.29,3.09,4.15,7.26,6.95,11.84,8.38h55.45v175.1c0,17.67,14.33,32.05,31.1,32.05l64.9,.89V72.93l-133.9-1ZM48,296.83c-8.75,0-16-7.24-16-15.99s7.25-15.99,16-15.99,16,7.18,16,16.08-7.25,15.9-16,15.9Zm544,0c-8.75,0-16-7.24-16-15.99s7.25-15.99,16-15.99,16,7.12,16,15.99-7.2,15.99-16,15.99Z"/></g></svg>