<?xml version="1.0" encoding="UTF-8"?><svg id="Layer_2" xmlns="http://www.w3.org/2000/svg" viewBox="0 0 480 512"><defs><style>.cls-1{fill:#f3f3f3;}</style></defs><g id="Layer_1-2"><path class="cls-1" d="M400,0c-43.4,0-78.7,34.48-80,77.52l-183.8,73.58c-14.5-14.3-34.3-23.1-56.2-23.1C35.82,128,0,163.8,0,208s35.82,80,80,80c12.21,0,23.8-2.7,34.1-7.6l145.6,127.4c-2.4,7.6-3.7,15.8-3.7,24.2,0,44.2,35.8,80,80,80s80-35.8,80-80c0-27.7-14.9-52.1-35.4-66.4l37.8-207.7c35.3-8.3,61.6-40,61.6-77.9C480,35.82,444.2,0,400,0ZM74.77,246.76c-21.56,0-39.04-17.48-39.04-39.04s17.48-39.04,39.04-39.04,39.04,17.48,39.04,39.04-17.48,39.04-39.04,39.04Zm81.53-14.56c2.2-6.9,3.4-14.2,2.8-21.7l184.7-73.6c3.6,3.5,7.4,6.7,11.6,9.5l-37.8,207.7c-5.5,1.3-10.7,3.2-15.7,5.5l-145.6-127.4Zm178.22,237.25c-21.56,0-39.04-17.48-39.04-39.04s17.48-39.04,39.04-39.04,39.04,17.48,39.04,39.04-17.48,39.04-39.04,39.04ZM401.35,113.4c-21.56,0-39.04-17.48-39.04-39.04s17.48-39.04,39.04-39.04,39.04,17.48,39.04,39.04-17.48,39.04-39.04,39.04Z"/></g></svg>