<?xml version="1.0" encoding="UTF-8"?><svg id="Layer_2" xmlns="http://www.w3.org/2000/svg" viewBox="0 0 352 512"><defs><style>.cls-1{fill:#f3f3f3;}</style></defs><g id="Layer_1-2"><path class="cls-1" d="M176,352c53.03,0,96-42.97,96-96V96C272,42.97,229.03,0,176,0S80,42.97,80,96v160c0,53,42.1,96,96,96Zm152-160c-13.3,0-24,10.7-24,23.1v40.9c0,73.33-61.97,132.4-136.3,127.7-66.08-4.17-119.7-66.59-119.7-132.8v-35.8c0-12.4-10.75-23.1-24-23.1S0,202.7,0,215.1v32.15c0,89.66,63.97,169.6,152,181.7v35.05h-40c-18.19,0-32.84,15.18-31.96,33.57,.39,8.23,7.76,14.43,15.96,14.43h160c8.22,0,15.57-6.22,15.96-14.43,.84-18.37-13.76-33.57-31.96-33.57h-40v-33.77c85.7-11.73,152-85.33,152-174.23v-40.9c0-12.4-10.7-23.1-24-23.1Z"/></g></svg>