<svg xmlns="http://www.w3.org/2000/svg" xmlns:xlink="http://www.w3.org/1999/xlink" viewBox="0 0 573.98 573.98"><defs><style>.cls-1{fill:url(#radial-gradient);}.cls-2,.cls-3,.cls-4,.cls-6,.cls-8{fill:#fbf7ef;}.cls-2,.cls-4,.cls-5{stroke:#fff;}.cls-2,.cls-4,.cls-5,.cls-6,.cls-7,.cls-8{stroke-miterlimit:10;}.cls-2,.cls-5,.cls-7,.cls-8{stroke-width:2px;}.cls-5{fill:#fff;}.cls-6{stroke:url(#radial-gradient-2);}.cls-7{fill:none;}.cls-7,.cls-8{stroke:#fbf7ef;}</style><radialGradient id="radial-gradient" cx="1313.88" cy="2691.58" r="202.94" gradientTransform="translate(-1026.89 -2404.59)" gradientUnits="userSpaceOnUse"><stop offset="0" stop-color="#fbf7ef"/><stop offset="0.38" stop-color="#39a786"/><stop offset="0.71" stop-color="#104d7c"/><stop offset="0.96" stop-color="#503676"/></radialGradient><radialGradient id="radial-gradient-2" cx="286.99" cy="534.56" r="9.94" gradientUnits="userSpaceOnUse"><stop offset="0.35" stop-color="#fbf7ef"/><stop offset="0.45" stop-color="#39a786"/><stop offset="0.66" stop-color="#104d7c"/><stop offset="0.75" stop-color="#503676"/></radialGradient></defs><g id="Layer_2" data-name="Layer 2"><g id="Layer_1-2" data-name="Layer 1"><rect class="cls-1" x="84.05" y="84.05" width="405.87" height="405.87" transform="translate(284.06 -118.86) rotate(44.59)"/><path class="cls-2" d="M287,265.85A20.6,20.6,0,0,1,301.74,272a21.36,21.36,0,0,1,0,29.89,20.67,20.67,0,0,1-29.5,0,21.33,21.33,0,0,1,0-29.89A20.6,20.6,0,0,1,287,265.85"/><path class="cls-3" d="M287,265.7A21.29,21.29,0,1,0,308,287a21.15,21.15,0,0,0-21-21.29Z"/><path class="cls-2" d="M287,182.78a16.47,16.47,0,0,1,11.81,5,17.1,17.1,0,0,1,0,23.94,16.54,16.54,0,0,1-23.62,0,17.07,17.07,0,0,1,0-23.94,16.47,16.47,0,0,1,11.81-5"/><path class="cls-3" d="M287,182.66a17.05,17.05,0,1,0,16.82,17.05A16.94,16.94,0,0,0,287,182.66Z"/><path class="cls-2" d="M287,357.34a16.47,16.47,0,0,1,11.81,5,17.1,17.1,0,0,1,0,23.94,16.54,16.54,0,0,1-23.62,0,17.07,17.07,0,0,1,0-23.94,16.47,16.47,0,0,1,11.81-5"/><path class="cls-3" d="M287,357.22a17.05,17.05,0,1,0,16.82,17,16.94,16.94,0,0,0-16.82-17Z"/><path class="cls-2" d="M184.15,287a16.91,16.91,0,0,1,4.9-12,16.54,16.54,0,0,1,23.62,0,17.07,17.07,0,0,1,0,23.94,16.54,16.54,0,0,1-23.62,0,16.93,16.93,0,0,1-4.9-12"/><path class="cls-3" d="M184,287a16.83,16.83,0,1,0,16.83-17.05A16.94,16.94,0,0,0,184,287Z"/><path class="cls-2" d="M356.41,287a16.94,16.94,0,0,1,4.89-12,16.55,16.55,0,0,1,23.63,0,17.1,17.1,0,0,1,0,23.94,16.55,16.55,0,0,1-23.63,0,17,17,0,0,1-4.89-12"/><path class="cls-3" d="M356.29,287a16.83,16.83,0,1,0,16.83-17.05A16.94,16.94,0,0,0,356.29,287Z"/><path class="cls-2" d="M199.61,185.09a14.25,14.25,0,0,1,10.2,4.28,14.77,14.77,0,0,1,0,20.67,14.27,14.27,0,0,1-20.4,0,14.74,14.74,0,0,1,0-20.67,14.22,14.22,0,0,1,10.2-4.28"/><path class="cls-3" d="M199.61,185a14.73,14.73,0,1,0,14.53,14.73A14.63,14.63,0,0,0,199.61,185Z"/><path class="cls-2" d="M373.12,185.09a14.25,14.25,0,0,1,10.2,4.28,14.77,14.77,0,0,1,0,20.67,14.27,14.27,0,0,1-20.4,0,14.74,14.74,0,0,1,0-20.67,14.22,14.22,0,0,1,10.2-4.28"/><path class="cls-3" d="M373.12,185a14.73,14.73,0,1,0,14.53,14.73A14.63,14.63,0,0,0,373.12,185Z"/><path class="cls-2" d="M200.23,359.65a14.26,14.26,0,0,1,10.21,4.28,14.78,14.78,0,0,1,0,20.68,14.31,14.31,0,0,1-20.41,0,14.78,14.78,0,0,1,0-20.68,14.25,14.25,0,0,1,10.2-4.28"/><path class="cls-3" d="M200.23,359.55a14.72,14.72,0,1,0,14.53,14.72,14.63,14.63,0,0,0-14.53-14.72Z"/><path class="cls-2" d="M373.12,359.65a14.25,14.25,0,0,1,10.2,4.28,14.78,14.78,0,0,1,0,20.68,14.29,14.29,0,0,1-20.4,0,14.75,14.75,0,0,1,0-20.68,14.22,14.22,0,0,1,10.2-4.28"/><path class="cls-3" d="M373.12,359.55a14.72,14.72,0,1,0,14.53,14.72,14.62,14.62,0,0,0-14.53-14.72Z"/><path class="cls-2" d="M119.49,361.86a12.08,12.08,0,0,1,8.66,3.64,12.53,12.53,0,0,1,0,17.54,12.12,12.12,0,0,1-17.32,0,12.53,12.53,0,0,1,0-17.54,12.06,12.06,0,0,1,8.66-3.64"/><path class="cls-3" d="M119.49,361.77a12.5,12.5,0,1,0,12.33,12.5,12.42,12.42,0,0,0-12.33-12.5Z"/><path class="cls-4" d="M452,364.24a12.09,12.09,0,0,1,8.66,3.63,12.52,12.52,0,0,1,0,17.55,12.13,12.13,0,0,1-17.31,0,12.52,12.52,0,0,1,0-17.55,12.07,12.07,0,0,1,8.65-3.63"/><path class="cls-3" d="M452,364.15a12.5,12.5,0,1,0,12.33,12.5A12.41,12.41,0,0,0,452,364.15Z"/><path class="cls-2" d="M287,448.13a12.11,12.11,0,0,1,8.66,3.63,12.54,12.54,0,0,1,0,17.55,12.14,12.14,0,0,1-17.32,0,12.54,12.54,0,0,1,0-17.55,12.09,12.09,0,0,1,8.66-3.63"/><path class="cls-3" d="M287,448a12.5,12.5,0,1,0,12.33,12.5A12.41,12.41,0,0,0,287,448Z"/><path class="cls-2" d="M287,101a12.08,12.08,0,0,1,8.66,3.64,12.53,12.53,0,0,1,0,17.54,12.12,12.12,0,0,1-17.32,0,12.53,12.53,0,0,1,0-17.54A12.06,12.06,0,0,1,287,101"/><path class="cls-3" d="M287,101a12.5,12.5,0,1,0,12.33,12.49A12.41,12.41,0,0,0,287,101Z"/><path class="cls-5" d="M452,187.3a12.09,12.09,0,0,1,8.66,3.63,12.52,12.52,0,0,1,0,17.55,12.13,12.13,0,0,1-17.31,0,12.52,12.52,0,0,1,0-17.55A12.07,12.07,0,0,1,452,187.3"/><path class="cls-3" d="M452,187.21a12.5,12.5,0,1,0,12.33,12.5A12.42,12.42,0,0,0,452,187.21Z"/><path class="cls-2" d="M119.49,187.3a12.11,12.11,0,0,1,8.66,3.63,12.54,12.54,0,0,1,0,17.55,12.14,12.14,0,0,1-17.32,0,12.54,12.54,0,0,1,0-17.55,12.09,12.09,0,0,1,8.66-3.63"/><path class="cls-3" d="M119.49,187.21a12.5,12.5,0,1,0,12.33,12.5,12.42,12.42,0,0,0-12.33-12.5Z"/><path class="cls-2" d="M199.61,448.13a12.11,12.11,0,0,1,8.66,3.63,12.54,12.54,0,0,1,0,17.55,12.14,12.14,0,0,1-17.32,0,12.52,12.52,0,0,1,0-17.55,12.09,12.09,0,0,1,8.66-3.63"/><path class="cls-3" d="M199.61,448a12.5,12.5,0,1,0,12.33,12.5A12.41,12.41,0,0,0,199.61,448Z"/><path class="cls-2" d="M373.12,448.13a12.07,12.07,0,0,1,8.65,3.63,12.52,12.52,0,0,1,0,17.55,12.13,12.13,0,0,1-17.31,0,12.52,12.52,0,0,1,0-17.55,12.09,12.09,0,0,1,8.66-3.63"/><path class="cls-3" d="M373.12,448a12.5,12.5,0,1,0,12.33,12.5A12.41,12.41,0,0,0,373.12,448Z"/><path class="cls-2" d="M373.12,101a12,12,0,0,1,8.65,3.64,12.51,12.51,0,0,1,0,17.54,12.11,12.11,0,0,1-17.31,0,12.51,12.51,0,0,1,0-17.54,12.06,12.06,0,0,1,8.66-3.64"/><path class="cls-3" d="M373.12,101a12.5,12.5,0,1,0,12.33,12.49A12.41,12.41,0,0,0,373.12,101Z"/><path class="cls-2" d="M199.61,101a12.08,12.08,0,0,1,8.66,3.64,12.53,12.53,0,0,1,0,17.54,12.12,12.12,0,0,1-17.32,0,12.51,12.51,0,0,1,0-17.54,12.06,12.06,0,0,1,8.66-3.64"/><path class="cls-3" d="M199.61,101a12.5,12.5,0,1,0,12.33,12.49A12.41,12.41,0,0,0,199.61,101Z"/><path class="cls-3" d="M287,525.12a9.15,9.15,0,0,1,6.58,2.77,9.51,9.51,0,0,1,0,13.34,9.24,9.24,0,0,1-13.17,0,9.54,9.54,0,0,1,0-13.34,9.17,9.17,0,0,1,6.59-2.77"/><path class="cls-6" d="M287,525.06a9.5,9.5,0,1,0,9.38,9.5,9.44,9.44,0,0,0-9.38-9.5Z"/><path class="cls-2" d="M452,277.55a9.17,9.17,0,0,1,6.59,2.77,9.51,9.51,0,0,1,0,13.34,9.24,9.24,0,0,1-13.17,0,9.51,9.51,0,0,1,0-13.34,9.17,9.17,0,0,1,6.58-2.77"/><path class="cls-3" d="M452,277.49a9.5,9.5,0,1,0,9.38,9.5,9.44,9.44,0,0,0-9.38-9.5Z"/><path class="cls-2" d="M119.49,277.55a9.15,9.15,0,0,1,6.58,2.77,9.51,9.51,0,0,1,0,13.34,9.22,9.22,0,0,1-13.16,0,9.51,9.51,0,0,1,0-13.34,9.13,9.13,0,0,1,6.58-2.77"/><path class="cls-3" d="M119.49,277.49a9.5,9.5,0,1,0,9.38,9.5,9.44,9.44,0,0,0-9.38-9.5Z"/><path class="cls-2" d="M287,30a9.15,9.15,0,0,1,6.58,2.77,9.51,9.51,0,0,1,0,13.34,9.24,9.24,0,0,1-13.17,0,9.54,9.54,0,0,1,0-13.34A9.17,9.17,0,0,1,287,30"/><path class="cls-3" d="M287,29.91a9.51,9.51,0,1,0,9.38,9.51A9.45,9.45,0,0,0,287,29.91Z"/><path class="cls-2" d="M517.9,276.34a9.2,9.2,0,0,1,6.58,2.76,9.53,9.53,0,0,1,0,13.35,9.24,9.24,0,0,1-13.17,0,9.53,9.53,0,0,1,0-13.35,9.21,9.21,0,0,1,6.59-2.76"/><path class="cls-3" d="M517.9,276.27a9.51,9.51,0,1,0,9.37,9.51,9.45,9.45,0,0,0-9.37-9.51Z"/><path class="cls-2" d="M50.26,276.34a9.21,9.21,0,0,1,6.59,2.76,9.55,9.55,0,0,1,0,13.35,9.24,9.24,0,0,1-13.17,0,9.53,9.53,0,0,1,0-13.35,9.18,9.18,0,0,1,6.58-2.76"/><path class="cls-3" d="M50.26,276.27a9.51,9.51,0,1,0,9.38,9.51,9.45,9.45,0,0,0-9.38-9.51Z"/><line class="cls-7" x1="286.99" y1="39.42" x2="286.99" y2="113.44"/><line class="cls-7" x1="373.12" y1="113.44" x2="286.99" y2="39.42"/><line class="cls-7" x1="286.99" y1="113.44" x2="373.12" y2="113.44"/><line class="cls-7" x1="286.99" y1="39.42" x2="199.61" y2="113.44"/><line class="cls-7" x1="286.99" y1="113.44" x2="199.61" y2="113.44"/><line class="cls-7" x1="243.3" y1="76.43" x2="286.99" y2="113.44"/><line class="cls-7" x1="330.05" y1="76.43" x2="286.99" y2="113.44"/><line class="cls-7" x1="286.99" y1="199.71" x2="286.99" y2="113.44"/><line class="cls-7" x1="373.12" y1="113.44" x2="286.99" y2="199.71"/><line class="cls-7" x1="286.99" y1="113.44" x2="373.12" y2="199.71"/><line class="cls-7" x1="373.12" y1="113.44" x2="373.12" y2="199.71"/><line class="cls-7" x1="286.99" y1="199.71" x2="373.12" y2="199.71"/><line class="cls-7" x1="199.61" y1="113.44" x2="199.61" y2="199.71"/><line class="cls-7" x1="286.99" y1="113.44" x2="199.61" y2="199.71"/><line class="cls-7" x1="286.99" y1="199.71" x2="199.61" y2="199.71"/><line class="cls-7" x1="199.61" y1="113.44" x2="286.99" y2="199.71"/><line class="cls-7" x1="373.12" y1="113.44" x2="451.98" y2="199.71"/><line class="cls-7" x1="373.12" y1="199.71" x2="451.98" y2="199.71"/><line class="cls-7" x1="412.55" y1="156.57" x2="373.12" y2="199.71"/><line class="cls-7" x1="199.61" y1="199.71" x2="119.49" y2="199.71"/><line class="cls-7" x1="199.61" y1="113.44" x2="119.49" y2="199.71"/><line class="cls-7" x1="119.49" y1="286.99" x2="119.49" y2="199.71"/><line class="cls-7" x1="159.55" y1="156.57" x2="199.61" y2="199.71"/><line class="cls-7" x1="50.26" y1="285.78" x2="119.49" y2="286.99"/><line class="cls-7" x1="119.49" y1="199.71" x2="50.26" y2="285.78"/><line class="cls-7" x1="119.49" y1="286.99" x2="200.86" y2="286.38"/><line class="cls-7" x1="199.61" y1="199.71" x2="200.86" y2="286.38"/><line class="cls-7" x1="119.49" y1="199.71" x2="200.86" y2="286.38"/><line class="cls-7" x1="199.61" y1="199.71" x2="119.49" y2="286.99"/><line class="cls-7" x1="200.86" y1="286.38" x2="286.99" y2="286.99"/><line class="cls-7" x1="286.99" y1="199.71" x2="286.99" y2="286.99"/><line class="cls-7" x1="199.61" y1="199.71" x2="286.99" y2="286.99"/><line class="cls-7" x1="286.99" y1="199.71" x2="200.86" y2="286.38"/><line class="cls-7" x1="373.12" y1="199.71" x2="373.12" y2="286.69"/><line class="cls-7" x1="286.99" y1="199.71" x2="373.12" y2="286.69"/><line class="cls-7" x1="451.98" y1="199.71" x2="373.12" y2="286.69"/><line class="cls-7" x1="451.98" y1="286.38" x2="373.12" y2="286.69"/><line class="cls-7" x1="451.98" y1="199.71" x2="451.98" y2="286.38"/><line class="cls-7" x1="517.9" y1="285.78" x2="451.98" y2="286.38"/><line class="cls-7" x1="451.98" y1="199.71" x2="517.9" y2="285.78"/><line class="cls-7" x1="451.98" y1="286.38" x2="373.12" y2="199.71"/><line class="cls-7" x1="486.52" y1="244.8" x2="451.98" y2="286.38"/><line class="cls-7" x1="373.12" y1="199.71" x2="286.99" y2="286.99"/><line class="cls-7" x1="373.12" y1="286.69" x2="286.99" y2="286.99"/><line class="cls-7" x1="84.51" y1="243.2" x2="119.49" y2="286.99"/><path class="cls-8" d="M287,287v0Z"/><line class="cls-7" x1="373.12" y1="286.69" x2="373.12" y2="374.27"/><line class="cls-7" x1="200.86" y1="286.38" x2="200.23" y2="374.27"/><line class="cls-7" x1="119.49" y1="286.99" x2="119.49" y2="374.27"/><line class="cls-7" x1="200.23" y1="374.27" x2="119.49" y2="374.27"/><line class="cls-7" x1="200.86" y1="286.38" x2="119.49" y2="374.27"/><line class="cls-8" x1="286.99" y1="286.99" x2="200.23" y2="374.27"/><line class="cls-7" x1="373.12" y1="286.69" x2="286.99" y2="374.27"/><line class="cls-7" x1="451.98" y1="286.38" x2="373.12" y2="374.27"/><line class="cls-7" x1="517.9" y1="285.78" x2="451.98" y2="376.65"/><line class="cls-7" x1="451.98" y1="286.38" x2="451.98" y2="376.65"/><line class="cls-7" x1="373.12" y1="286.69" x2="451.98" y2="376.65"/><line class="cls-7" x1="286.99" y1="286.99" x2="373.12" y2="374.27"/><line class="cls-7" x1="286.99" y1="374.27" x2="373.12" y2="374.27"/><line class="cls-7" x1="451.98" y1="376.65" x2="373.12" y2="374.27"/><line class="cls-7" x1="286.99" y1="374.27" x2="373.12" y2="461.26"/><line class="cls-7" x1="200.23" y1="374.27" x2="286.99" y2="374.27"/><line class="cls-7" x1="200.86" y1="286.38" x2="286.99" y2="374.27"/><line class="cls-7" x1="119.49" y1="286.99" x2="200.23" y2="374.27"/><line class="cls-7" x1="50.26" y1="285.78" x2="119.49" y2="374.27"/><line class="cls-7" x1="200.23" y1="374.27" x2="199.61" y2="460.54"/><line class="cls-7" x1="286.99" y1="374.27" x2="286.99" y2="460.54"/><line class="cls-7" x1="373.12" y1="461.26" x2="286.99" y2="460.54"/><line class="cls-7" x1="200.23" y1="374.27" x2="286.99" y2="460.54"/><line class="cls-7" x1="286.99" y1="374.27" x2="199.61" y2="460.54"/><line class="cls-7" x1="119.49" y1="374.27" x2="199.61" y2="460.54"/><line class="cls-7" x1="85.35" y1="330.63" x2="119.49" y2="286.99"/><line class="cls-7" x1="159.55" y1="417.4" x2="200.23" y2="374.27"/><line class="cls-7" x1="199.61" y1="460.54" x2="286.99" y2="460.54"/><line class="cls-7" x1="373.12" y1="461.26" x2="451.98" y2="376.65"/><line class="cls-7" x1="373.12" y1="374.27" x2="373.12" y2="461.26"/><line class="cls-7" x1="412.55" y1="417.76" x2="373.12" y2="374.27"/><line class="cls-7" x1="286.99" y1="460.54" x2="373.12" y2="374.27"/><line class="cls-7" x1="286.99" y1="534.56" x2="286.99" y2="460.54"/><line class="cls-7" x1="373.12" y1="461.26" x2="286.99" y2="534.56"/><line class="cls-7" x1="199.61" y1="460.54" x2="286.99" y2="534.56"/><line class="cls-7" x1="286.99" y1="460.54" x2="330.05" y2="497.55"/><line class="cls-7" x1="484.94" y1="330.63" x2="451.98" y2="286.38"/><line class="cls-7" x1="243.92" y1="497.55" x2="286.99" y2="460.54"/></g></g></svg>