<?xml version="1.0" encoding="UTF-8"?><svg id="Layer_2" xmlns="http://www.w3.org/2000/svg" viewBox="0 0 983.18 965.11"><defs><style>.cls-1{letter-spacing:-.01em;}.cls-2{letter-spacing:-.01em;}.cls-3{fill:none;stroke:#fff;stroke-miterlimit:10;stroke-width:3px;}.cls-4{font-size:13.39px;}.cls-4,.cls-5,.cls-6{font-family:MyriadPro-Regular, 'Myriad Pro';}.cls-5{font-size:22.04px;}.cls-7{fill:#fff;}.cls-8{fill:#ccc;}.cls-6{font-size:37.09px;}.cls-9{letter-spacing:-.02em;}.cls-10{letter-spacing:-.02em;}.cls-11{letter-spacing:-.02em;}.cls-12{letter-spacing:0em;}.cls-13{letter-spacing:0em;}.cls-14{letter-spacing:0em;}.cls-15{letter-spacing:0em;}.cls-16{letter-spacing:0em;}.cls-17{letter-spacing:.01em;}.cls-18{letter-spacing:0em;}.cls-19{letter-spacing:.01em;}.cls-20{letter-spacing:.01em;}</style></defs><g id="Layer_1-2"><g id="Lines"><path class="cls-7" d="M313.34,148.9c41.9,0,82.54,8.21,120.8,24.39,36.96,15.63,70.14,38.01,98.65,66.51,28.5,28.5,50.88,61.69,66.51,98.65,16.18,38.26,24.39,78.9,24.39,120.8s-8.21,82.54-24.39,120.8c-15.63,36.96-38.01,70.14-66.51,98.65s-61.69,50.88-98.65,66.51c-38.26,16.18-78.9,24.39-120.8,24.39s-82.54-8.2-120.8-24.39c-36.96-15.63-70.14-38.01-98.65-66.51s-50.88-61.69-66.51-98.65c-16.18-38.26-24.39-78.9-24.39-120.8s8.2-82.54,24.39-120.8c15.63-36.96,38.01-70.14,66.51-98.65,28.5-28.5,61.69-50.88,98.65-66.51,38.26-16.18,78.9-24.39,120.8-24.39m0-3C140.29,145.9,0,286.19,0,459.24s140.29,313.34,313.34,313.34,313.34-140.29,313.34-313.34S486.4,145.9,313.34,145.9h0Z"/><path class="cls-7" d="M313.34,176.84c38.13,0,75.11,7.47,109.92,22.19,33.63,14.22,63.83,34.59,89.77,60.52,25.94,25.94,46.3,56.14,60.52,89.77,14.73,34.81,22.19,71.8,22.19,109.92s-7.47,75.11-22.19,109.92c-14.22,33.63-34.59,63.83-60.52,89.77-25.94,25.94-56.14,46.3-89.77,60.52-34.81,14.73-71.8,22.19-109.92,22.19s-75.11-7.47-109.92-22.19c-33.63-14.22-63.83-34.59-89.77-60.52-25.94-25.94-46.3-56.14-60.52-89.77-14.73-34.81-22.19-71.8-22.19-109.92s7.47-75.11,22.19-109.92c14.22-33.63,34.59-63.83,60.52-89.77,25.94-25.94,56.14-46.3,89.77-60.52,34.81-14.73,71.8-22.19,109.92-22.19m0-3c-157.63,0-285.41,127.78-285.41,285.41s127.78,285.41,285.41,285.41,285.41-127.78,285.41-285.41S470.97,173.84,313.34,173.84h0Z"/><path class="cls-7" d="M804.94,3c46.81,0,90.82,18.23,123.92,51.33,33.1,33.1,51.33,77.11,51.33,123.92s-18.23,90.82-51.33,123.92c-33.1,33.1-77.11,51.33-123.92,51.33-3.68,0-7.45-.12-11.21-.36-29.23-1.84-57.75-11.09-82.45-26.74-24.1-15.27-44.33-36.42-58.51-61.17-15.1-26.34-23.08-56.41-23.08-86.98,0-46.81,18.23-90.82,51.33-123.92,33.1-33.1,77.11-51.33,123.92-51.33m0-3c-98.44,0-178.25,79.81-178.25,178.25,0,32.2,8.54,62.41,23.48,88.47,28.95,50.54,81.94,85.54,143.37,89.41,3.77,.24,7.56,.37,11.4,.37,98.44,0,178.25-79.81,178.25-178.25S903.38,0,804.94,0h0Z"/><path class="cls-7" d="M761.29,757.57c56.39,0,102.27,45.88,102.27,102.27s-45.88,102.27-102.27,102.27-102.27-45.88-102.27-102.27,45.88-102.27,102.27-102.27m0-3c-58.14,0-105.27,47.13-105.27,105.27s47.13,105.27,105.27,105.27,105.27-47.13,105.27-105.27-47.13-105.27-105.27-105.27h0Z"/><line class="cls-3" x1="650.16" y1="266.71" x2="585.42" y2="303.72"/><line class="cls-3" x1="793.54" y1="356.13" x2="768.02" y2="754.78"/><line class="cls-3" x1="682.83" y1="789.68" x2="546.91" y2="668.13"/></g><g id="big-c"><circle class="cls-8" cx="313.34" cy="459.24" r="271.98"/><text class="cls-6" transform="translate(222.92 459.24)"><tspan class="cls-10" x="0" y="0">P</tspan><tspan class="cls-18" x="19.14" y="0">i</tspan><tspan class="cls-20" x="27.81" y="0">c</tspan><tspan x="44.91" y="0">tu</tspan><tspan class="cls-15" x="77.62" y="0">r</tspan><tspan x="89.38" y="0">e he</tspan><tspan class="cls-1" x="154.98" y="0">r</tspan><tspan x="166.73" y="0">e</tspan></text></g><g id="med-c"><circle class="cls-8" cx="804.94" cy="178.06" r="161.66"/><text class="cls-5" transform="translate(751.19 178.06)"><tspan class="cls-11" x="0" y="0">P</tspan><tspan class="cls-12" x="11.38" y="0">i</tspan><tspan class="cls-19" x="16.53" y="0">c</tspan><tspan x="26.69" y="0">tu</tspan><tspan class="cls-14" x="46.14" y="0">r</tspan><tspan class="cls-12" x="53.12" y="0">e he</tspan><tspan class="cls-2" x="92.12" y="0">r</tspan><tspan x="99.11" y="0">e</tspan></text></g><g id="small-c"><circle class="cls-8" cx="761.29" cy="859.84" r="98.24"/><text class="cls-4" transform="translate(728.63 859.84)"><tspan class="cls-9" x="0" y="0">P</tspan><tspan class="cls-16" x="6.91" y="0">i</tspan><tspan class="cls-17" x="10.05" y="0">c</tspan><tspan x="16.22" y="0">tu</tspan><tspan class="cls-13" x="28.04" y="0">r</tspan><tspan x="32.28" y="0">e he</tspan><tspan class="cls-13" x="55.98" y="0">r</tspan><tspan class="cls-16" x="60.22" y="0">e</tspan></text></g></g></svg>