<svg xmlns="http://www.w3.org/2000/svg" xmlns:xlink="http://www.w3.org/1999/xlink" width="137.78" height="137.78" viewBox="0 0 137.78 137.78">
  <defs>
    <radialGradient id="radial-gradient" cx="0.5" cy="0.5" r="0.354" gradientTransform="translate(2.648 -0.218) rotate(44.587)" gradientUnits="objectBoundingBox">
      <stop offset="0" stop-color="#fbf7ef"/>
      <stop offset="0.375" stop-color="#39a786"/>
      <stop offset="0.707" stop-color="#104d7c"/>
      <stop offset="0.957" stop-color="#503676"/>
    </radialGradient>
  </defs>
  <g id="logo2" transform="translate(-470.35 -55.23)">
    <path id="Path_825" data-name="Path 825" d="M539.737,193.01,470.35,124.617,538.743,55.23l69.387,68.393Z" transform="translate(0 0)" fill="url(#radial-gradient)"/>
    <path id="Path_826" data-name="Path 826" d="M931.206,510.6a4.946,4.946,0,0,1,3.54,1.486,5.123,5.123,0,0,1,0,7.175,4.961,4.961,0,0,1-7.08,0,5.123,5.123,0,0,1,0-7.175,4.935,4.935,0,0,1,3.54-1.486" transform="translate(-391.965 -391.552)" fill="#fbf7ef" stroke="#fff" stroke-miterlimit="10" stroke-width="0.5"/>
    <path id="Path_827" data-name="Path 827" d="M930.982,510.34a5.11,5.11,0,1,0,5.042,5.11,5.076,5.076,0,0,0-5.042-5.11Z" transform="translate(-391.742 -391.329)" fill="#fbf7ef"/>
    <path id="Path_828" data-name="Path 828" d="M937.32,368.3a3.96,3.96,0,0,1,2.835,1.19,4.1,4.1,0,0,1,0,5.746,3.973,3.973,0,0,1-5.67,0,4.1,4.1,0,0,1,0-5.746,3.957,3.957,0,0,1,2.835-1.19" transform="translate(-398.079 -269.195)" fill="#fbf7ef" stroke="#fff" stroke-miterlimit="10" stroke-width="0.5"/>
    <path id="Path_829" data-name="Path 829" d="M937.139,368.09a4.093,4.093,0,1,0,4.039,4.092,4.066,4.066,0,0,0-4.039-4.092Z" transform="translate(-397.898 -269.014)" fill="#fbf7ef"/>
    <path id="Path_830" data-name="Path 830" d="M937.32,667.3a3.96,3.96,0,0,1,2.835,1.19,4.1,4.1,0,0,1,0,5.746,3.973,3.973,0,0,1-5.67,0,4.1,4.1,0,0,1,0-5.746,3.952,3.952,0,0,1,2.835-1.19" transform="translate(-398.079 -526.292)" fill="#fbf7ef" stroke="#fff" stroke-miterlimit="10" stroke-width="0.5"/>
    <path id="Path_831" data-name="Path 831" d="M937.139,667.09a4.093,4.093,0,1,0,4.039,4.092,4.066,4.066,0,0,0-4.039-4.092Z" transform="translate(-397.898 -526.111)" fill="#fbf7ef"/>
    <path id="Path_832" data-name="Path 832" d="M785.78,521.873A4.063,4.063,0,0,1,786.954,519a3.973,3.973,0,0,1,5.67,0,4.1,4.1,0,0,1,0,5.746,3.973,3.973,0,0,1-5.67,0,4.062,4.062,0,0,1-1.174-2.873" transform="translate(-271.224 -397.752)" fill="#fbf7ef" stroke="#fff" stroke-miterlimit="10" stroke-width="0.5"/>
    <path id="Path_833" data-name="Path 833" d="M785.57,521.692a4.039,4.039,0,1,0,4.039-4.092,4.065,4.065,0,0,0-4.039,4.092Z" transform="translate(-271.044 -397.571)" fill="#fbf7ef"/>
    <path id="Path_834" data-name="Path 834" d="M1080.83,521.873A4.063,4.063,0,0,1,1082,519a3.973,3.973,0,0,1,5.67,0,4.1,4.1,0,0,1,0,5.746,3.973,3.973,0,0,1-5.67,0,4.062,4.062,0,0,1-1.174-2.873" transform="translate(-524.925 -397.752)" fill="#fbf7ef" stroke="#fff" stroke-miterlimit="10" stroke-width="0.5"/>
    <path id="Path_835" data-name="Path 835" d="M1080.62,521.692a4.039,4.039,0,1,0,4.039-4.092,4.065,4.065,0,0,0-4.039,4.092Z" transform="translate(-524.744 -397.571)" fill="#fbf7ef"/>
    <path id="Path_836" data-name="Path 836" d="M791,372.26a3.414,3.414,0,0,1,2.448,1.027,3.543,3.543,0,0,1,0,4.964,3.431,3.431,0,0,1-4.9,0,3.543,3.543,0,0,1,0-4.964A3.414,3.414,0,0,1,791,372.26" transform="translate(-272.738 -272.6)" fill="#fbf7ef" stroke="#fff" stroke-miterlimit="10" stroke-width="0.5"/>
    <path id="Path_837" data-name="Path 837" d="M790.848,372.08a3.535,3.535,0,1,0,3.488,3.534,3.512,3.512,0,0,0-3.488-3.534Z" transform="translate(-272.583 -272.445)" fill="#fbf7ef"/>
    <path id="Path_838" data-name="Path 838" d="M1088.193,372.26a3.415,3.415,0,0,1,2.448,1.027,3.543,3.543,0,0,1,0,4.964,3.431,3.431,0,0,1-4.9,0,3.543,3.543,0,0,1,0-4.964,3.414,3.414,0,0,1,2.448-1.027" transform="translate(-528.278 -272.6)" fill="#fbf7ef" stroke="#fff" stroke-miterlimit="10" stroke-width="0.5"/>
    <path id="Path_839" data-name="Path 839" d="M1088.038,372.08a3.535,3.535,0,1,0,3.488,3.534,3.512,3.512,0,0,0-3.488-3.534Z" transform="translate(-528.123 -272.445)" fill="#fbf7ef"/>
    <path id="Path_840" data-name="Path 840" d="M792.073,671.25a3.414,3.414,0,0,1,2.448,1.027,3.543,3.543,0,0,1,0,4.964,3.431,3.431,0,0,1-4.9,0,3.543,3.543,0,0,1,0-4.964,3.42,3.42,0,0,1,2.448-1.027" transform="translate(-273.658 -529.688)" fill="#fbf7ef" stroke="#fff" stroke-miterlimit="10" stroke-width="0.5"/>
    <path id="Path_841" data-name="Path 841" d="M791.918,671.08a3.535,3.535,0,1,0,3.488,3.534,3.512,3.512,0,0,0-3.488-3.534Z" transform="translate(-273.503 -529.542)" fill="#fbf7ef"/>
    <path id="Path_842" data-name="Path 842" d="M1088.193,671.25a3.414,3.414,0,0,1,2.448,1.027,3.543,3.543,0,0,1,0,4.964,3.431,3.431,0,0,1-4.9,0,3.543,3.543,0,0,1,0-4.964,3.42,3.42,0,0,1,2.448-1.027" transform="translate(-528.278 -529.688)" fill="#fbf7ef" stroke="#fff" stroke-miterlimit="10" stroke-width="0.5"/>
    <path id="Path_843" data-name="Path 843" d="M1088.038,671.08a3.535,3.535,0,1,0,3.488,3.534,3.512,3.512,0,0,0-3.488-3.534Z" transform="translate(-528.123 -529.542)" fill="#fbf7ef"/>
    <path id="Path_844" data-name="Path 844" d="M656.989,675.04a2.9,2.9,0,0,1,2.078.872,3.008,3.008,0,0,1,0,4.213,2.914,2.914,0,0,1-4.157,0,3.008,3.008,0,0,1,0-4.213,2.9,2.9,0,0,1,2.078-.872" transform="translate(-157.956 -532.947)" fill="#fbf7ef" stroke="#fff" stroke-miterlimit="10" stroke-width="0.5"/>
    <path id="Path_845" data-name="Path 845" d="M656.86,674.89a3,3,0,1,0,2.96,3,2.98,2.98,0,0,0-2.96-3Z" transform="translate(-157.827 -532.818)" fill="#fbf7ef"/>
    <path id="Path_846" data-name="Path 846" d="M1226.5,679.11a2.9,2.9,0,0,1,2.078.872,3.008,3.008,0,0,1,0,4.213,2.914,2.914,0,0,1-4.157,0,3.008,3.008,0,0,1,0-4.213,2.9,2.9,0,0,1,2.078-.872" transform="translate(-647.652 -536.447)" fill="#fbf7ef" stroke="#fff" stroke-miterlimit="10" stroke-width="0.5"/>
    <path id="Path_847" data-name="Path 847" d="M1226.37,678.96a3,3,0,1,0,2.96,3,2.98,2.98,0,0,0-2.96-3Z" transform="translate(-647.523 -536.318)" fill="#fbf7ef"/>
    <path id="Path_848" data-name="Path 848" d="M943.889,822.8a2.9,2.9,0,0,1,2.078.872,3.008,3.008,0,0,1,0,4.213,2.914,2.914,0,0,1-4.157,0,3.008,3.008,0,0,1,0-4.213,2.9,2.9,0,0,1,2.078-.872" transform="translate(-404.648 -659.999)" fill="#fbf7ef" stroke="#fff" stroke-miterlimit="10" stroke-width="0.5"/>
    <path id="Path_849" data-name="Path 849" d="M943.76,822.65a3,3,0,1,0,2.96,3,2.98,2.98,0,0,0-2.96-3Z" transform="translate(-404.519 -659.87)" fill="#fbf7ef"/>
    <path id="Path_850" data-name="Path 850" d="M943.889,228.29a2.9,2.9,0,0,1,2.078.872,3.008,3.008,0,0,1,0,4.213,2.914,2.914,0,0,1-4.157,0,3.008,3.008,0,0,1,0-4.213,2.9,2.9,0,0,1,2.078-.872" transform="translate(-404.648 -148.807)" fill="#fbf7ef" stroke="#fff" stroke-miterlimit="10" stroke-width="0.5"/>
    <path id="Path_851" data-name="Path 851" d="M943.76,228.14a3,3,0,1,0,2.96,3,2.98,2.98,0,0,0-2.96-3Z" transform="translate(-404.519 -148.678)" fill="#fbf7ef"/>
    <path id="Path_852" data-name="Path 852" d="M1226.5,376.05a2.9,2.9,0,0,1,2.078.872,3.008,3.008,0,0,1,0,4.213,2.913,2.913,0,0,1-4.157,0,3.008,3.008,0,0,1,0-4.213,2.9,2.9,0,0,1,2.078-.872" transform="translate(-647.652 -275.859)" fill="#fff" stroke="#fff" stroke-miterlimit="10" stroke-width="0.5"/>
    <path id="Path_853" data-name="Path 853" d="M1226.37,375.9a3,3,0,1,0,2.96,3,2.98,2.98,0,0,0-2.96-3Z" transform="translate(-647.523 -275.73)" fill="#fbf7ef"/>
    <path id="Path_854" data-name="Path 854" d="M656.989,376.05a2.9,2.9,0,0,1,2.078.872,3.008,3.008,0,0,1,0,4.213,2.914,2.914,0,0,1-4.157,0,3.008,3.008,0,0,1,0-4.213,2.9,2.9,0,0,1,2.078-.872" transform="translate(-157.956 -275.859)" fill="#fbf7ef" stroke="#fff" stroke-miterlimit="10" stroke-width="0.5"/>
    <path id="Path_855" data-name="Path 855" d="M656.86,375.9a3,3,0,1,0,2.96,3,2.98,2.98,0,0,0-2.96-3Z" transform="translate(-157.827 -275.73)" fill="#fbf7ef"/>
    <path id="Path_856" data-name="Path 856" d="M794.219,822.8a2.9,2.9,0,0,1,2.078.872,3.008,3.008,0,0,1,0,4.213,2.914,2.914,0,0,1-4.157,0,3.008,3.008,0,0,1,0-4.213,2.9,2.9,0,0,1,2.078-.872" transform="translate(-275.953 -659.999)" fill="#fbf7ef" stroke="#fff" stroke-miterlimit="10" stroke-width="0.5"/>
    <path id="Path_857" data-name="Path 857" d="M794.09,822.65a3,3,0,1,0,2.96,3,2.98,2.98,0,0,0-2.96-3Z" transform="translate(-275.824 -659.87)" fill="#fbf7ef"/>
    <path id="Path_858" data-name="Path 858" d="M1091.409,822.8a2.9,2.9,0,0,1,2.078.872,3.008,3.008,0,0,1,0,4.213,2.914,2.914,0,0,1-4.157,0,3.008,3.008,0,0,1,0-4.213,2.9,2.9,0,0,1,2.078-.872" transform="translate(-531.494 -659.999)" fill="#fbf7ef" stroke="#fff" stroke-miterlimit="10" stroke-width="0.5"/>
    <path id="Path_859" data-name="Path 859" d="M1091.28,822.65a3,3,0,1,0,2.96,3,2.98,2.98,0,0,0-2.96-3Z" transform="translate(-531.365 -659.87)" fill="#fbf7ef"/>
    <path id="Path_860" data-name="Path 860" d="M1091.409,228.29a2.9,2.9,0,0,1,2.078.872,3.008,3.008,0,0,1,0,4.213,2.914,2.914,0,0,1-4.157,0,3.008,3.008,0,0,1,0-4.213,2.9,2.9,0,0,1,2.078-.872" transform="translate(-531.494 -148.807)" fill="#fbf7ef" stroke="#fff" stroke-miterlimit="10" stroke-width="0.5"/>
    <path id="Path_861" data-name="Path 861" d="M1091.28,228.14a3,3,0,1,0,2.96,3,2.98,2.98,0,0,0-2.96-3Z" transform="translate(-531.365 -148.678)" fill="#fbf7ef"/>
    <path id="Path_862" data-name="Path 862" d="M794.219,228.29a2.9,2.9,0,0,1,2.078.872,3.008,3.008,0,0,1,0,4.213,2.913,2.913,0,0,1-4.157,0,3.008,3.008,0,0,1,0-4.213,2.9,2.9,0,0,1,2.078-.872" transform="translate(-275.953 -148.807)" fill="#fbf7ef" stroke="#fff" stroke-miterlimit="10" stroke-width="0.5"/>
    <path id="Path_863" data-name="Path 863" d="M794.09,228.14a3,3,0,1,0,2.96,3,2.98,2.98,0,0,0-2.96-3Z" transform="translate(-275.824 -148.678)" fill="#fbf7ef"/>
    <path id="Path_864" data-name="Path 864" d="M948.205,954.68a2.207,2.207,0,0,1,1.581.663,2.288,2.288,0,0,1,0,3.2,2.217,2.217,0,0,1-3.162,0,2.288,2.288,0,0,1,0-3.2,2.207,2.207,0,0,1,1.581-.663" transform="translate(-408.964 -773.397)" fill="#fbf7ef"/>
    <path id="Path_865" data-name="Path 865" d="M948.111,954.57a2.282,2.282,0,1,0,2.251,2.281,2.266,2.266,0,0,0-2.251-2.281Z" transform="translate(-408.87 -773.303)" fill="#fbf7ef" stroke="#707070" stroke-miterlimit="10" stroke-width="0.5"/>
    <path id="Path_866" data-name="Path 866" d="M1230.815,530.63a2.207,2.207,0,0,1,1.581.663,2.287,2.287,0,0,1,0,3.2,2.216,2.216,0,0,1-3.161,0,2.287,2.287,0,0,1,0-3.2,2.212,2.212,0,0,1,1.581-.663" transform="translate(-651.968 -408.775)" fill="#fbf7ef" stroke="#fff" stroke-miterlimit="10" stroke-width="0.5"/>
    <path id="Path_867" data-name="Path 867" d="M1230.721,530.52a2.282,2.282,0,1,0,2.251,2.282,2.266,2.266,0,0,0-2.251-2.282Z" transform="translate(-651.874 -408.681)" fill="#fbf7ef"/>
    <path id="Path_868" data-name="Path 868" d="M661.305,530.63a2.207,2.207,0,0,1,1.581.663,2.288,2.288,0,0,1,0,3.2,2.216,2.216,0,0,1-3.162,0,2.288,2.288,0,0,1,0-3.2,2.213,2.213,0,0,1,1.581-.663" transform="translate(-162.272 -408.775)" fill="#fbf7ef" stroke="#fff" stroke-miterlimit="10" stroke-width="0.5"/>
    <path id="Path_869" data-name="Path 869" d="M661.211,530.52a2.282,2.282,0,1,0,2.251,2.282,2.266,2.266,0,0,0-2.251-2.282Z" transform="translate(-162.177 -408.681)" fill="#fbf7ef"/>
    <path id="Path_870" data-name="Path 870" d="M948.205,106.59a2.207,2.207,0,0,1,1.581.663,2.288,2.288,0,0,1,0,3.2,2.216,2.216,0,0,1-3.162,0,2.288,2.288,0,0,1,0-3.2,2.207,2.207,0,0,1,1.581-.663" transform="translate(-408.964 -44.162)" fill="#fbf7ef" stroke="#fff" stroke-miterlimit="10" stroke-width="0.5"/>
    <path id="Path_871" data-name="Path 871" d="M948.111,106.47a2.282,2.282,0,1,0,2.251,2.282,2.266,2.266,0,0,0-2.251-2.282Z" transform="translate(-408.87 -44.059)" fill="#fbf7ef"/>
    <path id="Path_872" data-name="Path 872" d="M1343.705,528.56a2.207,2.207,0,0,1,1.581.663,2.287,2.287,0,0,1,0,3.2,2.216,2.216,0,0,1-3.162,0,2.287,2.287,0,0,1,0-3.2,2.209,2.209,0,0,1,1.581-.663" transform="translate(-749.037 -406.995)" fill="#fbf7ef" stroke="#fff" stroke-miterlimit="10" stroke-width="0.5"/>
    <path id="Path_873" data-name="Path 873" d="M1343.611,528.44a2.282,2.282,0,1,0,2.251,2.282,2.266,2.266,0,0,0-2.251-2.282Z" transform="translate(-748.943 -406.892)" fill="#fbf7ef"/>
    <path id="Path_874" data-name="Path 874" d="M542.725,528.56a2.207,2.207,0,0,1,1.581.663,2.287,2.287,0,0,1,0,3.2,2.216,2.216,0,0,1-3.162,0,2.288,2.288,0,0,1,0-3.2,2.209,2.209,0,0,1,1.581-.663" transform="translate(-60.31 -406.995)" fill="#fbf7ef" stroke="#fff" stroke-miterlimit="10" stroke-width="0.5"/>
    <path id="Path_875" data-name="Path 875" d="M542.631,528.44a2.282,2.282,0,1,0,2.251,2.282,2.266,2.266,0,0,0-2.251-2.282Z" transform="translate(-60.216 -406.892)" fill="#fbf7ef"/>
    <line id="Line_755" data-name="Line 755" y2="17.769" transform="translate(539.241 64.693)" fill="none" stroke="#fbf7ef" stroke-miterlimit="10" stroke-width="0.5"/>
    <line id="Line_756" data-name="Line 756" x1="20.674" y1="17.769" transform="translate(539.241 64.693)" fill="none" stroke="#fbf7ef" stroke-miterlimit="10" stroke-width="0.5"/>
    <line id="Line_757" data-name="Line 757" x2="20.674" transform="translate(539.241 82.461)" fill="none" stroke="#fbf7ef" stroke-miterlimit="10" stroke-width="0.5"/>
    <line id="Line_758" data-name="Line 758" x1="20.975" y2="17.769" transform="translate(518.265 64.693)" fill="none" stroke="#fbf7ef" stroke-miterlimit="10" stroke-width="0.5"/>
    <line id="Line_759" data-name="Line 759" x1="20.975" transform="translate(518.265 82.461)" fill="none" stroke="#fbf7ef" stroke-miterlimit="10" stroke-width="0.5"/>
    <line id="Line_760" data-name="Line 760" x2="10.488" y2="8.885" transform="translate(528.752 73.576)" fill="none" stroke="#fbf7ef" stroke-miterlimit="10" stroke-width="0.5"/>
    <line id="Line_761" data-name="Line 761" x1="10.337" y2="8.885" transform="translate(539.241 73.576)" fill="none" stroke="#fbf7ef" stroke-miterlimit="10" stroke-width="0.5"/>
    <line id="Line_762" data-name="Line 762" y1="20.708" transform="translate(539.241 82.461)" fill="none" stroke="#fbf7ef" stroke-miterlimit="10" stroke-width="0.5"/>
    <line id="Line_763" data-name="Line 763" x1="20.674" y2="20.708" transform="translate(539.241 82.461)" fill="none" stroke="#fbf7ef" stroke-miterlimit="10" stroke-width="0.5"/>
    <line id="Line_764" data-name="Line 764" x2="20.674" y2="20.708" transform="translate(539.241 82.461)" fill="none" stroke="#fbf7ef" stroke-miterlimit="10" stroke-width="0.5"/>
    <line id="Line_765" data-name="Line 765" y2="20.708" transform="translate(559.915 82.461)" fill="none" stroke="#fbf7ef" stroke-miterlimit="10" stroke-width="0.5"/>
    <line id="Line_766" data-name="Line 766" x2="20.674" transform="translate(539.241 103.169)" fill="none" stroke="#fbf7ef" stroke-miterlimit="10" stroke-width="0.5"/>
    <line id="Line_767" data-name="Line 767" y2="20.708" transform="translate(518.265 82.461)" fill="none" stroke="#fbf7ef" stroke-miterlimit="10" stroke-width="0.5"/>
    <line id="Line_768" data-name="Line 768" x1="20.975" y2="20.708" transform="translate(518.265 82.461)" fill="none" stroke="#fbf7ef" stroke-miterlimit="10" stroke-width="0.5"/>
    <line id="Line_769" data-name="Line 769" x1="20.975" transform="translate(518.265 103.169)" fill="none" stroke="#fbf7ef" stroke-miterlimit="10" stroke-width="0.5"/>
    <line id="Line_770" data-name="Line 770" x2="20.975" y2="20.708" transform="translate(518.265 82.461)" fill="none" stroke="#fbf7ef" stroke-miterlimit="10" stroke-width="0.5"/>
    <line id="Line_771" data-name="Line 771" x2="18.932" y2="20.708" transform="translate(559.915 82.461)" fill="none" stroke="#fbf7ef" stroke-miterlimit="10" stroke-width="0.5"/>
    <line id="Line_772" data-name="Line 772" x2="18.932" transform="translate(559.915 103.169)" fill="none" stroke="#fbf7ef" stroke-miterlimit="10" stroke-width="0.5"/>
    <line id="Line_773" data-name="Line 773" x1="9.465" y2="10.354" transform="translate(559.915 92.815)" fill="none" stroke="#fbf7ef" stroke-miterlimit="10" stroke-width="0.5"/>
    <line id="Line_774" data-name="Line 774" x1="19.232" transform="translate(499.033 103.169)" fill="none" stroke="#fbf7ef" stroke-miterlimit="10" stroke-width="0.5"/>
    <line id="Line_775" data-name="Line 775" x1="19.232" y2="20.708" transform="translate(499.033 82.461)" fill="none" stroke="#fbf7ef" stroke-miterlimit="10" stroke-width="0.5"/>
    <line id="Line_776" data-name="Line 776" y1="20.952" transform="translate(499.033 103.169)" fill="none" stroke="#fbf7ef" stroke-miterlimit="10" stroke-width="0.5"/>
    <line id="Line_777" data-name="Line 777" x2="9.617" y2="10.354" transform="translate(508.649 92.815)" fill="none" stroke="#fbf7ef" stroke-miterlimit="10" stroke-width="0.5"/>
    <line id="Line_778" data-name="Line 778" x2="16.618" y2="0.292" transform="translate(482.415 123.829)" fill="none" stroke="#fbf7ef" stroke-miterlimit="10" stroke-width="0.5"/>
    <line id="Line_779" data-name="Line 779" x1="16.618" y2="20.66" transform="translate(482.415 103.169)" fill="none" stroke="#fbf7ef" stroke-miterlimit="10" stroke-width="0.5"/>
    <line id="Line_780" data-name="Line 780" y1="0.146" x2="19.532" transform="translate(499.033 123.975)" fill="none" stroke="#fbf7ef" stroke-miterlimit="10" stroke-width="0.5"/>
    <line id="Line_781" data-name="Line 781" x2="0.3" y2="20.806" transform="translate(518.265 103.169)" fill="none" stroke="#fbf7ef" stroke-miterlimit="10" stroke-width="0.5"/>
    <line id="Line_782" data-name="Line 782" x2="19.532" y2="20.806" transform="translate(499.033 103.169)" fill="none" stroke="#fbf7ef" stroke-miterlimit="10" stroke-width="0.5"/>
    <line id="Line_783" data-name="Line 783" x1="19.232" y2="20.952" transform="translate(499.033 103.169)" fill="none" stroke="#fbf7ef" stroke-miterlimit="10" stroke-width="0.5"/>
    <line id="Line_784" data-name="Line 784" x2="20.676" y2="0.146" transform="translate(518.565 123.975)" fill="none" stroke="#fbf7ef" stroke-miterlimit="10" stroke-width="0.5"/>
    <line id="Line_785" data-name="Line 785" y2="20.952" transform="translate(539.241 103.169)" fill="none" stroke="#fbf7ef" stroke-miterlimit="10" stroke-width="0.5"/>
    <line id="Line_786" data-name="Line 786" x2="20.975" y2="20.952" transform="translate(518.265 103.169)" fill="none" stroke="#fbf7ef" stroke-miterlimit="10" stroke-width="0.5"/>
    <line id="Line_787" data-name="Line 787" x1="20.676" y2="20.806" transform="translate(518.565 103.169)" fill="none" stroke="#fbf7ef" stroke-miterlimit="10" stroke-width="0.5"/>
    <line id="Line_788" data-name="Line 788" y2="20.879" transform="translate(559.915 103.169)" fill="none" stroke="#fbf7ef" stroke-miterlimit="10" stroke-width="0.5"/>
    <line id="Line_789" data-name="Line 789" x2="20.674" y2="20.879" transform="translate(539.241 103.169)" fill="none" stroke="#fbf7ef" stroke-miterlimit="10" stroke-width="0.5"/>
    <line id="Line_790" data-name="Line 790" x1="18.932" y2="20.879" transform="translate(559.915 103.169)" fill="none" stroke="#fbf7ef" stroke-miterlimit="10" stroke-width="0.5"/>
    <line id="Line_791" data-name="Line 791" x1="18.932" y2="0.073" transform="translate(559.915 123.975)" fill="none" stroke="#fbf7ef" stroke-miterlimit="10" stroke-width="0.5"/>
    <line id="Line_792" data-name="Line 792" y2="20.806" transform="translate(578.847 103.169)" fill="none" stroke="#fbf7ef" stroke-miterlimit="10" stroke-width="0.5"/>
    <line id="Line_793" data-name="Line 793" x1="15.821" y2="0.146" transform="translate(578.847 123.829)" fill="none" stroke="#fbf7ef" stroke-miterlimit="10" stroke-width="0.5"/>
    <line id="Line_794" data-name="Line 794" x2="15.821" y2="20.66" transform="translate(578.847 103.169)" fill="none" stroke="#fbf7ef" stroke-miterlimit="10" stroke-width="0.5"/>
    <line id="Line_795" data-name="Line 795" x1="18.932" y1="20.806" transform="translate(559.915 103.169)" fill="none" stroke="#fbf7ef" stroke-miterlimit="10" stroke-width="0.5"/>
    <line id="Line_796" data-name="Line 796" x1="8.29" y2="9.981" transform="translate(578.847 113.994)" fill="none" stroke="#fbf7ef" stroke-miterlimit="10" stroke-width="0.5"/>
    <line id="Line_797" data-name="Line 797" x1="20.674" y2="20.952" transform="translate(539.241 103.169)" fill="none" stroke="#fbf7ef" stroke-miterlimit="10" stroke-width="0.5"/>
    <line id="Line_798" data-name="Line 798" x1="20.674" y2="0.073" transform="translate(539.241 124.048)" fill="none" stroke="#fbf7ef" stroke-miterlimit="10" stroke-width="0.5"/>
    <line id="Line_799" data-name="Line 799" x2="8.397" y2="10.512" transform="translate(490.636 113.609)" fill="none" stroke="#fbf7ef" stroke-miterlimit="10" stroke-width="0.5"/>
    <path id="Path_876" data-name="Path 876" d="M961.92,546.8v0Z" transform="translate(-422.679 -422.679)" fill="#fbf7ef" stroke="#fbf7ef" stroke-miterlimit="10" stroke-width="0.5"/>
    <line id="Line_800" data-name="Line 800" y2="21.024" transform="translate(559.915 124.048)" fill="none" stroke="#fbf7ef" stroke-miterlimit="10" stroke-width="0.5"/>
    <line id="Line_801" data-name="Line 801" x1="0.15" y2="21.097" transform="translate(518.415 123.975)" fill="none" stroke="#fbf7ef" stroke-miterlimit="10" stroke-width="0.5"/>
    <line id="Line_802" data-name="Line 802" y2="20.952" transform="translate(499.033 124.121)" fill="none" stroke="#fbf7ef" stroke-miterlimit="10" stroke-width="0.5"/>
    <line id="Line_803" data-name="Line 803" x1="19.382" transform="translate(499.033 145.072)" fill="none" stroke="#fbf7ef" stroke-miterlimit="10" stroke-width="0.5"/>
    <line id="Line_804" data-name="Line 804" x1="19.532" y2="21.097" transform="translate(499.033 123.975)" fill="none" stroke="#fbf7ef" stroke-miterlimit="10" stroke-width="0.5"/>
    <line id="Line_805" data-name="Line 805" x1="20.825" y2="20.952" transform="translate(518.415 124.121)" fill="#fbf7ef" stroke="#fbf7ef" stroke-miterlimit="10" stroke-width="0.5"/>
    <line id="Line_806" data-name="Line 806" x1="20.674" y2="21.024" transform="translate(539.241 124.048)" fill="none" stroke="#fbf7ef" stroke-miterlimit="10" stroke-width="0.5"/>
    <line id="Line_807" data-name="Line 807" x1="18.932" y2="21.097" transform="translate(559.915 123.975)" fill="none" stroke="#fbf7ef" stroke-miterlimit="10" stroke-width="0.5"/>
    <line id="Line_808" data-name="Line 808" x1="15.821" y2="21.812" transform="translate(578.847 123.829)" fill="none" stroke="#fbf7ef" stroke-miterlimit="10" stroke-width="0.5"/>
    <line id="Line_809" data-name="Line 809" y2="21.666" transform="translate(578.847 123.975)" fill="none" stroke="#fbf7ef" stroke-miterlimit="10" stroke-width="0.5"/>
    <line id="Line_810" data-name="Line 810" x2="18.932" y2="21.593" transform="translate(559.915 124.048)" fill="none" stroke="#fbf7ef" stroke-miterlimit="10" stroke-width="0.5"/>
    <line id="Line_811" data-name="Line 811" x2="20.674" y2="20.952" transform="translate(539.241 124.121)" fill="none" stroke="#fbf7ef" stroke-miterlimit="10" stroke-width="0.5"/>
    <line id="Line_812" data-name="Line 812" x2="20.674" transform="translate(539.241 145.072)" fill="none" stroke="#fbf7ef" stroke-miterlimit="10" stroke-width="0.5"/>
    <line id="Line_813" data-name="Line 813" x1="18.932" y1="0.569" transform="translate(559.915 145.072)" fill="none" stroke="#fbf7ef" stroke-miterlimit="10" stroke-width="0.5"/>
    <line id="Line_814" data-name="Line 814" x2="20.674" y2="20.88" transform="translate(539.241 145.072)" fill="none" stroke="#fbf7ef" stroke-miterlimit="10" stroke-width="0.5"/>
    <line id="Line_815" data-name="Line 815" x2="20.825" transform="translate(518.415 145.072)" fill="none" stroke="#fbf7ef" stroke-miterlimit="10" stroke-width="0.5"/>
    <line id="Line_816" data-name="Line 816" x2="20.676" y2="21.097" transform="translate(518.565 123.975)" fill="none" stroke="#fbf7ef" stroke-miterlimit="10" stroke-width="0.5"/>
    <line id="Line_817" data-name="Line 817" x2="19.382" y2="20.952" transform="translate(499.033 124.121)" fill="none" stroke="#fbf7ef" stroke-miterlimit="10" stroke-width="0.5"/>
    <line id="Line_818" data-name="Line 818" x2="16.618" y2="21.243" transform="translate(482.415 123.829)" fill="none" stroke="#fbf7ef" stroke-miterlimit="10" stroke-width="0.5"/>
    <line id="Line_819" data-name="Line 819" x1="0.15" y2="20.706" transform="translate(518.265 145.072)" fill="none" stroke="#fbf7ef" stroke-miterlimit="10" stroke-width="0.5"/>
    <line id="Line_820" data-name="Line 820" y2="20.706" transform="translate(539.241 145.072)" fill="none" stroke="#fbf7ef" stroke-miterlimit="10" stroke-width="0.5"/>
    <line id="Line_821" data-name="Line 821" x1="20.674" y1="0.174" transform="translate(539.241 165.779)" fill="none" stroke="#fbf7ef" stroke-miterlimit="10" stroke-width="0.5"/>
    <line id="Line_822" data-name="Line 822" x2="20.825" y2="20.706" transform="translate(518.415 145.072)" fill="none" stroke="#fbf7ef" stroke-miterlimit="10" stroke-width="0.5"/>
    <line id="Line_823" data-name="Line 823" x1="20.975" y2="20.706" transform="translate(518.265 145.072)" fill="none" stroke="#fbf7ef" stroke-miterlimit="10" stroke-width="0.5"/>
    <line id="Line_824" data-name="Line 824" x2="19.232" y2="20.706" transform="translate(499.033 145.072)" fill="none" stroke="#fbf7ef" stroke-miterlimit="10" stroke-width="0.5"/>
    <line id="Line_825" data-name="Line 825" y1="10.476" x2="8.196" transform="translate(490.838 124.121)" fill="none" stroke="#fbf7ef" stroke-miterlimit="10" stroke-width="0.5"/>
    <line id="Line_826" data-name="Line 826" y1="10.352" x2="9.767" transform="translate(508.649 145.072)" fill="none" stroke="#fbf7ef" stroke-miterlimit="10" stroke-width="0.5"/>
    <line id="Line_827" data-name="Line 827" x2="20.975" transform="translate(518.265 165.779)" fill="none" stroke="#fbf7ef" stroke-miterlimit="10" stroke-width="0.5"/>
    <line id="Line_828" data-name="Line 828" y1="20.311" x2="18.932" transform="translate(559.915 145.641)" fill="none" stroke="#fbf7ef" stroke-miterlimit="10" stroke-width="0.5"/>
    <line id="Line_829" data-name="Line 829" y2="20.88" transform="translate(559.915 145.072)" fill="none" stroke="#fbf7ef" stroke-miterlimit="10" stroke-width="0.5"/>
    <line id="Line_830" data-name="Line 830" x1="9.465" y1="10.439" transform="translate(559.915 145.072)" fill="none" stroke="#fbf7ef" stroke-miterlimit="10" stroke-width="0.5"/>
    <line id="Line_831" data-name="Line 831" y1="20.706" x2="20.674" transform="translate(539.241 145.072)" fill="none" stroke="#fbf7ef" stroke-miterlimit="10" stroke-width="0.5"/>
    <line id="Line_832" data-name="Line 832" y1="17.769" transform="translate(539.241 165.779)" fill="none" stroke="#fbf7ef" stroke-miterlimit="10" stroke-width="0.5"/>
    <line id="Line_833" data-name="Line 833" x1="20.674" y2="17.595" transform="translate(539.241 165.953)" fill="none" stroke="#fbf7ef" stroke-miterlimit="10" stroke-width="0.5"/>
    <line id="Line_834" data-name="Line 834" x2="20.975" y2="17.769" transform="translate(518.265 165.779)" fill="none" stroke="#fbf7ef" stroke-miterlimit="10" stroke-width="0.5"/>
    <line id="Line_835" data-name="Line 835" x2="10.337" y2="8.885" transform="translate(539.241 165.779)" fill="none" stroke="#fbf7ef" stroke-miterlimit="10" stroke-width="0.5"/>
    <line id="Line_836" data-name="Line 836" x1="7.91" y1="10.622" transform="translate(578.847 123.975)" fill="none" stroke="#fbf7ef" stroke-miterlimit="10" stroke-width="0.5"/>
    <line id="Line_837" data-name="Line 837" y1="8.885" x2="10.338" transform="translate(528.902 165.779)" fill="none" stroke="#fbf7ef" stroke-miterlimit="10" stroke-width="0.5"/>
  </g>
</svg>
