<svg xmlns="http://www.w3.org/2000/svg" width="266" height="266" viewBox="0 0 266 266">
  <g id="Layer_1-2" transform="translate(0.5 0.5)">
    <path id="Path_186" data-name="Path 186" d="M132.5,0A132.5,132.5,0,1,0,265,132.5,132.464,132.464,0,0,0,132.5,0Zm0,242.669A110.169,110.169,0,1,1,242.669,132.5,110.194,110.194,0,0,1,132.5,242.669Z" fill="none" stroke="#f3f3f3" stroke-width="1"/>
    <g id="Group_72" data-name="Group 72" transform="translate(52.071 55.688)">
      <path id="Path_187" data-name="Path 187" d="M20.71,48.87,55.136,77.8,66.4,71.113,37.323,39.41Z" transform="translate(19.346 83.221)" fill="none" stroke="#f3f3f3" stroke-width="1"/>
      <path id="Path_188" data-name="Path 188" d="M44.608,28.68,70.035,71.366,38.655,89.179,13.09,45.939Z" transform="translate(-8.198 44.435)" fill="none" stroke="#f3f3f3" stroke-width="1"/>
      <path id="Path_189" data-name="Path 189" d="M12.03,38.06,30.3,68.379l5.953-2.907L17.983,34.23Z" transform="translate(-12.03 64.496)" fill="none" stroke="#f3f3f3" stroke-width="1"/>
      <path id="Path_190" data-name="Path 190" d="M20.916,78.2l22.1,37.933s35.026-18.6,79.511-14.49L71.678,15.16S54.788,51.57,20.87,78.2Z" transform="translate(19.924 -4.436)" fill="none" stroke="#fff" stroke-width="1"/>
      <path id="Path_191" data-name="Path 191" d="M38.3,20.57l14.167,23.9S65.85,21.77,38.3,20.57Z" transform="translate(82.928 15.12)" fill="none" stroke="#f3f3f3" stroke-width="1"/>
      <path id="Path_192" data-name="Path 192" d="M63.86,65.516S86.841,24.722,40.694,21.953c0,0-6.876-2.907,0-5.353,0,0,50.116,2.307,27.55,50.715,0,0-5.168,3.83-4.43-1.846Z" transform="translate(80.534 0.769)" fill="none" stroke="#f3f3f3" stroke-width="1"/>
      <path id="Path_193" data-name="Path 193" d="M70.3,81.567S98.633,25.221,41.78,21.437c0,0-8.445-4.015,0-7.337,0,0,61.791,3.138,33.964,70,0,0-6.368,5.261-5.445-2.538Z" transform="translate(81.94 -8.267)" fill="none" stroke="#f3f3f3" stroke-width="1"/>
      <path id="Path_194" data-name="Path 194" d="M31.88,17.284l55.976,95.94s8.537,3.969,6.23-4.246L37.879,13.962s-5.445-4.107-6,3.369Z" transform="translate(59.722 -12.836)" fill="none" stroke="#fff" stroke-width="1"/>
    </g>
  </g>
</svg>
